<?xml version="1.0" encoding="UTF-8"?>
<svg id="Layer_1" xmlns="http://www.w3.org/2000/svg" version="1.1" viewBox="0 0 83.7 83.7">
  <!-- Generator: Adobe Illustrator 29.6.1, SVG Export Plug-In . SVG Version: 2.1.1 Build 9)  -->
  <defs>
    <style>
      .st0 {
        fill: #fff;
      }
    </style>
  </defs>
  <path class="st0" d="M37.37.89c19.02-1.83,30.95,19.47,18.85,34.25-10.72,13.09-32.07,8.59-36.5-7.75C16.44,15.28,24.68,2.11,37.37.89Z"/>
  <path class="st0" d="M6.15,79.13c-2.47-.33-5.02-2.97-5.29-5.46-.22-2.04-.19-7.33.23-9.26,1.59-7.31,9.89-12.23,16.39-14.61,8.91-3.27,18.74-4.12,28.17-3.45-7.47,7.84-8.79,19.73-3.12,29.01.82,1.34,1.84,2.52,2.76,3.78H6.15Z"/>
  <path class="st0" d="M61.92,42.81c14.79-.8,25.22,14.41,19.42,28.02-6.09,14.27-25.78,16.41-34.76,3.7-9.18-13-.45-30.86,15.34-31.72ZM69.79,55.34c-.36.07-.75.35-1.03.58l-8.01,7.96c-.56.14-3.59-2.52-4.53-2.76-3.22-.86-5.19,2.84-2.68,5.01.96.83,5.03,3.58,6.13,4.08s1.9.41,2.94-.17c2.88-3.27,7.4-6.52,10-9.89,1.86-2.41.08-5.4-2.83-4.8h.01Z"/>
</svg>