<?xml version="1.0" encoding="UTF-8"?>
<svg id="Layer_1" xmlns="http://www.w3.org/2000/svg" version="1.1" viewBox="0 0 71.03 74.74">
  <!-- Generator: Adobe Illustrator 29.6.1, SVG Export Plug-In . SVG Version: 2.1.1 Build 9)  -->
  <defs>
    <style>
      .st0 {
        fill: #212121;
      }
    </style>
  </defs>
  <path class="st0" d="M35.51,71.73C16.56,71.73,1.15,56.32,1.15,37.37S16.56,3,35.51,3s34.37,15.42,34.37,34.37-15.42,34.37-34.37,34.37ZM35.51,6c-17.29,0-31.37,14.07-31.37,31.37s14.07,31.37,31.37,31.37,31.37-14.07,31.37-31.37S52.81,6,35.51,6Z"/>
  <g>
    <path class="st0" d="M35.31,33.03h-9.44v9.24h-3.2v-9.24h-9.44v-3h9.44v-9.29h3.2v9.29h9.44v3Z"/>
    <g id="w8bJFw.tif">
      <path class="st0" d="M49.33,22.1c5.21-2.24,10.06,2.56,7.99,7.76l-14.83,27.09c-2.19,2.18-5.56,2.86-8.22,4.38-.8.08-1.09-.19-1.27-.94-.42-1.71-.78-4.73-.95-6.53-.11-1.14-.03-2.04.42-3.1l14.45-26.57c.54-.8,1.52-1.72,2.41-2.1ZM53.69,24.08c-2.15-1.15-4.78.08-5.47,2.37l6.5,3.6c1.57-1.86,1.19-4.78-1.02-5.96ZM47.08,28.42l-11.84,21.74,6.59,3.57,11.91-21.76-6.66-3.55ZM34.9,58.62c1.42-.69,2.99-1.24,4.39-1.96.52-.27,1.16-.56,1.45-1.08l-6.42-3.42c-.23.46-.16.99-.11,1.48.15,1.64.6,3.32.7,4.97Z"/>
    </g>
  </g>
</svg>