<?xml version="1.0" encoding="UTF-8"?>
<svg id="Layer_1" xmlns="http://www.w3.org/2000/svg" version="1.1" viewBox="0 0 44.92 46.33">
  <!-- Generator: Adobe Illustrator 29.6.1, SVG Export Plug-In . SVG Version: 2.1.1 Build 9)  -->
  <defs>
    <style>
      .st0 {
        fill: #ec1c24;
      }
    </style>
  </defs>
  <path class="st0" d="M32.87,21.48V3.87H3.93v38.59h28.95v-4.73l3.22-5.69v10.93c0,1.35-1.42,2.65-2.74,2.7H3.53c-1.52-.1-2.65-1.19-2.81-2.7V3.62C.85,2.07,1.96.75,3.56.65h29.71c1.57.13,2.69,1.44,2.81,2.97v12.1c-.93,1.75-1.89,3.49-2.86,5.21-.1.18-.21.39-.35.55Z"/>
  <polygon class="st0" points="27.36 35.36 38.85 15.63 42.1 17.44 30.69 37.23 27.36 39.25 27.36 35.36"/>
  <rect class="st0" x="6.69" y="14.44" width="23.43" height="2.3"/>
  <rect class="st0" x="6.69" y="25" width="23.43" height="2.3"/>
  <rect class="st0" x="6.69" y="8.92" width="17.92" height="2.3"/>
  <rect class="st0" x="6.69" y="19.49" width="17.92" height="2.3"/>
  <rect class="st0" x="6.69" y="30.06" width="17.92" height="2.3"/>
  <path class="st0" d="M8.55,35.47c3.05-.3,3.33,4.28.41,4.47-2.92.19-3.24-4.19-.41-4.47Z"/>
  <path class="st0" d="M15.56,35.51c3.21-.36,3.39,4.39.37,4.47-2.81.07-3.07-4.16-.37-4.47Z"/>
  <polygon class="st0" points="43.02 16.23 39.77 14.44 40.99 12.27 44.2 14.08 43.02 16.23"/>
</svg>