<?xml version="1.0" encoding="UTF-8"?>
<svg id="Layer_1" xmlns="http://www.w3.org/2000/svg" version="1.1" viewBox="0 0 35.94 37.08">
  <!-- Generator: Adobe Illustrator 29.6.1, SVG Export Plug-In . SVG Version: 2.1.1 Build 9)  -->
  <defs>
    <style>
      .st0 {
        fill: #fff;
      }
    </style>
  </defs>
  <path class="st0" d="M26.19,17.21V3.32H3.36v30.45h22.83v-3.73l2.54-4.49v8.62c0,1.07-1.12,2.09-2.16,2.13H3.04c-1.2-.08-2.09-.94-2.21-2.13V3.12c.1-1.22.98-2.26,2.24-2.34h23.44c1.24.1,2.12,1.13,2.22,2.34v9.55c-.73,1.38-1.49,2.75-2.26,4.11-.08.14-.17.31-.28.43"/>
  <polygon class="st0" points="21.84 28.16 30.91 12.59 33.47 14.02 24.47 29.63 21.84 31.22 21.84 28.16"/>
  <rect class="st0" x="5.53" y="11.65" width="18.49" height="1.81"/>
  <rect class="st0" x="5.53" y="19.99" width="18.49" height="1.81"/>
  <rect class="st0" x="5.53" y="7.3" width="14.14" height="1.81"/>
  <rect class="st0" x="5.53" y="15.64" width="14.14" height="1.81"/>
  <rect class="st0" x="5.53" y="23.98" width="14.14" height="1.81"/>
  <path class="st0" d="M7,28.24c2.41-.24,2.63,3.38.32,3.53-2.3.15-2.56-3.3-.32-3.53"/>
  <path class="st0" d="M12.53,28.27c2.53-.29,2.67,3.47.29,3.53-2.21.06-2.42-3.28-.29-3.53"/>
  <polygon class="st0" points="34.19 13.07 31.63 11.65 32.59 9.94 35.13 11.37 34.19 13.07"/>
</svg>