<?xml version="1.0" encoding="UTF-8"?>
<svg id="Layer_1" xmlns="http://www.w3.org/2000/svg" version="1.1" viewBox="0 0 60.78 62.85">
  <!-- Generator: Adobe Illustrator 29.6.1, SVG Export Plug-In . SVG Version: 2.1.1 Build 9)  -->
  <defs>
    <style>
      .st0 {
        fill: #212121;
      }

      .st1 {
        fill: #ec1c24;
      }
    </style>
  </defs>
  <g>
    <path class="st1" d="M-59.67,35.23c1.13-.13,2.1.65,2.2,1.78.12,1.3-.07,2.78,0,4.1.04.79.19,1.37,1.06,1.53,7.32.1,14.64.01,21.97.04.95-.05,1.43-.29,1.5-1.31.09-1.32-.08-2.75,0-4.07.16-2.68,3.52-2.81,3.94-.29-.06,1.54.09,3.15,0,4.68-.16,2.66-2.09,4.65-4.74,4.89-7.65.05-15.32.06-22.97,0-2.46-.22-4.5-2.21-4.67-4.7-.09-1.36-.11-3.13-.03-4.49.06-1.06.59-2.04,1.74-2.17"/>
    <path class="st1" d="M-43.21,32.06c.05.01.07-.02.1-.05,1.07-1.1,2.1-2.23,3.15-3.34.49-.52,1.01-1.2,1.55-1.65,1.89-1.58,4.42.8,2.68,2.88-2.4,2.51-4.72,5.11-7.11,7.62-.72.75-1.38,1.68-2.55,1.58-.73-.06-1.19-.6-1.66-1.08-2.66-2.74-5.2-5.63-7.8-8.42-1.29-1.95,1.08-4.07,2.87-2.61.18.15.4.39.57.56,1.22,1.26,2.35,2.62,3.58,3.88.21.21.43.43.68.6v-13.65c.01-1.3.83-2.26,2.18-2.15.91.08,1.76.93,1.76,1.86v13.97Z"/>
  </g>
  <g>
    <path class="st0" d="M44.61,29.13V5.09H5.1v52.68h39.51v-6.45l4.39-7.76v14.92c0,1.84-1.93,3.61-3.74,3.68H4.55c-2.07-.13-3.62-1.63-3.83-3.69V4.75C.9,2.63,2.42.84,4.6.7h40.56c2.14.18,3.67,1.96,3.84,4.05v16.51c-1.26,2.38-2.57,4.76-3.91,7.11-.14.25-.29.54-.48.75"/>
    <polygon class="st0" points="37.08 48.07 52.77 21.14 57.2 23.62 41.63 50.62 37.08 53.37 37.08 48.07"/>
    <rect class="st0" x="8.86" y="19.51" width="31.98" height="3.14"/>
    <rect class="st0" x="8.86" y="33.93" width="31.98" height="3.14"/>
    <rect class="st0" x="8.86" y="11.99" width="24.46" height="3.14"/>
    <rect class="st0" x="8.86" y="26.41" width="24.46" height="3.14"/>
    <rect class="st0" x="8.86" y="40.83" width="24.46" height="3.14"/>
    <path class="st0" d="M11.41,48.22c4.16-.41,4.55,5.84.56,6.1-3.98.26-4.43-5.71-.56-6.1"/>
    <path class="st0" d="M20.98,48.27c4.38-.5,4.62,6,.51,6.1-3.83.1-4.2-5.68-.51-6.1"/>
    <polygon class="st0" points="58.45 21.96 54.01 19.51 55.68 16.56 60.07 19.02 58.45 21.96"/>
  </g>
</svg>