<?xml version="1.0" encoding="UTF-8"?>
<svg id="Layer_1" xmlns="http://www.w3.org/2000/svg" version="1.1" viewBox="0 0 83.7 83.7">
  <!-- Generator: Adobe Illustrator 29.6.1, SVG Export Plug-In . SVG Version: 2.1.1 Build 9)  -->
  <path d="M83.07,55.24c.47,4.84-.35,10.41,0,15.32-.18,2.74-3.42,6.29-6.2,6.29h-11.51l.49-2.49c-.33-7.97.42-16.28,0-24.21-.1-1.91-.53-3.72-.97-5.56,4.04.09,8.15-.52,11.86,1.42,3.28,1.71,5.97,5.5,6.33,9.22Z"/>
  <path d="M33.15,38.51c5.75-.59,12.6.17,18.41.16,5.01,1.01,9.09,5.53,9.47,10.67.61,8.23-.47,17.19,0,25.5-.11.9-.8,1.62-1.61,1.94l-34.53.08c-1.14-.05-2.13-1.06-2.17-2.18.47-8.26-.6-17.16,0-25.34.4-5.42,5.01-10.28,10.43-10.83Z"/>
  <path d="M40.4,6.9c11.62-1.09,19.68,11.25,13.84,21.45-5.77,10.08-20.76,9.26-25.42-1.39-3.88-8.85,1.97-19.16,11.58-20.06Z"/>
  <path d="M6.87,76.86c-3.56-.42-5.98-3.58-6.2-7.01-.26-3.99-.27-10.06,0-14.05.25-3.72,2.33-7.22,5.43-9.24,3.91-2.55,8.32-1.9,12.76-1.97-.44,1.84-.87,3.65-.97,5.56-.42,7.93.33,16.24,0,24.21l.49,2.49H6.87Z"/>
  <path d="M15.29,20.28c8.75-.99,15.02,7.9,10.88,15.75-3.87,7.34-14.56,7.42-18.7.23-3.7-6.43.41-15.13,7.82-15.97Z"/>
  <path d="M65.5,20.28c11.19-1.27,16.65,12.82,7.81,19.28-8.23,6.02-19.39-1.89-16.55-11.75,1.11-3.84,4.73-7.08,8.73-7.54Z"/>
</svg>