<?xml version="1.0" encoding="UTF-8"?>
<svg id="Layer_1" xmlns="http://www.w3.org/2000/svg" version="1.1" viewBox="0 0 57.92 55.22">
  <!-- Generator: Adobe Illustrator 29.6.1, SVG Export Plug-In . SVG Version: 2.1.1 Build 9)  -->
  <defs>
    <style>
      .st0 {
        fill: #ec1c24;
      }
    </style>
  </defs>
  <path class="st0" d="M16.75,27.59l17.12-12.77h0s0,0,0,0c.76-.55,1.96-.54,2.71.02.75.56.75,1.46.02,2.02h0s-14.42,10.75-14.42,10.75l14.42,10.75h0c.74.56.74,1.47-.02,2.03-.75.56-1.96.56-2.72.01h0s-17.13-12.77-17.13-12.77l.02-.02-.02-.02Z"/>
  <path class="st0" d="M28.96,54.76c-14.97,0-27.15-12.18-27.15-27.15S13.99.45,28.96.45s27.15,12.18,27.15,27.15-12.18,27.15-27.15,27.15ZM28.96,3.45C15.64,3.45,4.81,14.29,4.81,27.61s10.83,24.15,24.15,24.15,24.15-10.83,24.15-24.15S42.28,3.45,28.96,3.45Z"/>
</svg>