<?xml version="1.0" encoding="UTF-8"?>
<svg id="Layer_1" xmlns="http://www.w3.org/2000/svg" version="1.1" viewBox="0 0 93.38 94.9">
  <!-- Generator: Adobe Illustrator 29.6.1, SVG Export Plug-In . SVG Version: 2.1.1 Build 9)  -->
  <defs>
    <style>
      .st0 {
        fill: #212121;
      }
    </style>
  </defs>
  <path class="st0" d="M60.24,49.65c2.93,3.93,2.95,8.54-.14,12.38-.54.67.41,1.62.95.95,3.45-4.29,3.66-9.56.35-14.01-.51-.68-1.68-.02-1.16.68"/>
  <path class="st0" d="M63.42,47.03c4.71,5.4,4.63,12.53.18,18.12-.53.67.41,1.63.95.95,4.92-6.18,5.05-14.02-.18-20.02-.57-.65-1.52.3-.95.95"/>
  <path class="st0" d="M66.87,43.87c5.67,7.6,5.62,16.55-.34,23.96-.54.67.41,1.62.95.95,6.32-7.87,6.6-17.47.55-25.59-.51-.68-1.68-.02-1.16.68"/>
  <path class="st0" d="M57.35,45.11c-.72-.76-1.46-1.51-2.16-2.3-1.84-2.08-2.9-4.42-2.76-7.3.1-2.02.08-4.07-.18-6.06-.37-2.81-1.4-5.44-2.85-7.91-1.96-3.34-4.54-5.98-7.72-7.98-.65-.41-1.45.17-1.29.92,1.53,7.19.73,15.54-2.8,23.55-2.74,6.22-6.74,11.37-11.35,15.11-5.1,4.13-6.85,11.23-3.64,16.96.09.15.17.31.26.46,1.84,3.19,4.06,6.06,6.63,8.65.42.43,1.39,1.29,2.24,2.04.56.49,1.43.08,1.41-.67-.02-.89-.02-1.75.06-2.6.2-1.91.46-3.85.94-5.7.66-2.52,2.04-4.56,4.78-5.23,1.99-.48,4.02-.2,6.03-.18,1.45,0,2.93.12,4.35-.09,2.14-.32,3.47-2.41,2.79-4.31-.39-1.11-.26-1.9.64-2.64.53-.44.51-1.2.03-1.68-.3-.3-.64-.58-1-.82-.75-.51-1.52-.98-2.28-1.47.02-.1.04-.19.06-.29,1.06-.39,2.13-.79,3.2-1.17.56-.2,1.11-.5,1.1-1.12,0-.61-.23-1.23-.43-1.82-.26-.79.13-1.73.9-2.03.66-.25,1.35-.41,2.03-.61,1.92-.56,2.37-2.26.99-3.7"/>
</svg>