<?xml version="1.0" encoding="UTF-8"?>
<svg id="Layer_1" xmlns="http://www.w3.org/2000/svg" version="1.1" viewBox="0 0 93.38 94.9">
  <!-- Generator: Adobe Illustrator 29.6.1, SVG Export Plug-In . SVG Version: 2.1.1 Build 9)  -->
  <defs>
    <style>
      .st0 {
        fill: #212121;
      }
    </style>
  </defs>
  <path class="st0" d="M9.15,56.67c.82-8.33,11.99-10.8,17.68-15.12l19.68-25.09c2-1.86,4.96-1.63,6.66.5l5.6,9.74c2.13.16,4.42-.53,6.49-.1.27.18.46.41.65.67.76,1.01,1.94,3.18,2.55,4.35.62,1.21.78,1.23.09,2.49-.36.65-2.9,4.13-2.88,4.41,1.35,2.73,3.24,5.31,4.6,8.03,1.47,2.92.89,5.43-2.16,6.8l-29.18,5.68c.31,1.43,2.33,3.15,1.84,4.71-.25.81-3.39,2.15-4.19,2.71l-.13.26,4.41,7.64c2.5,4.84-2.1,10.14-7.26,8.29-1.7-.61-2.59-1.95-3.51-3.39-2.44-3.87-4.43-8.05-6.87-11.93-4.97,1.92-10.82-.26-13.09-5.1-.37-.78-.91-2.35-1-3.18-.06-.59-.06-1.75,0-2.35M67.81,50.16c.42-.46.44-1.32.1-1.85l-16.96-29.43c-.96-1.43-2.71-.69-2.99.77l18.04,31.09c.54-.11,1.4-.15,1.8-.58M62.86,51.38l-16.95-29.36-16.35,20.81,7.7,13.56,25.59-5.01ZM64.18,35.52l1.59-2.69c-.42-.49-1.76-3.46-2.23-3.47l-3.02.29,3.31,5.72.36.15ZM34.54,57.55l-7.41-12.76c-4.19,2.58-8.65,4.76-12.7,7.55-6.31,6.38,1.23,16.02,8.96,11.6l11.15-6.39ZM34.85,64c.12.09,2.61-1.38,2.61-1.53l-1.52-2.4-2.43,1.3,1.33,2.63ZM31.02,62.99l-5.11,2.98,7.4,12.86c2.09,2.7,6.21.57,5.16-2.66l-7.45-13.18Z"/>
  <path class="st0" d="M82.34,18.23c1.68-.35,2.55,1.22,1.44,2.46l-8.48,4.73c-1.61.64-2.7-1.01-1.71-2.3l8.76-4.9Z"/>
  <path class="st0" d="M74.71,32.03c.35-.08.75-.05,1.11,0,.92.14,4.89,1.18,5.64,1.55,1.53.75.87,2.9-.75,2.81-.72-.04-5.31-1.3-6.02-1.62-1.33-.61-1.19-2.47.02-2.74"/>
  <path class="st0" d="M67.31,12.37c.91-1.03,2.62-.27,2.58,1.04-.02.59-1.39,5.69-1.67,6.26-.55,1.09-2.39,1.04-2.68-.11-.22-.87.72-4.03,1.03-5.06.16-.52.42-1.77.74-2.13"/>
  <path class="st0" d="M23.05,57.44c1.79-.32,2.5,1.57.97,2.73-2.11,1.6-5.03,2.86-7.39.98-.97-.77-1.83-2.27-.51-3.16,1.55-1.05,2,1.22,3.37,1.18,1.05-.03,2.52-1.55,3.56-1.74"/>
  <path class="st0" d="M28.04,54.5c2.68-.61,2.46,3.49-.11,2.69-1.21-.37-1.06-2.42.11-2.69"/>
</svg>