<?xml version="1.0" encoding="UTF-8"?>
<svg id="Layer_1" xmlns="http://www.w3.org/2000/svg" version="1.1" viewBox="0 0 71.03 74.74">
  <!-- Generator: Adobe Illustrator 29.6.1, SVG Export Plug-In . SVG Version: 2.1.1 Build 9)  -->
  <path d="M70.07,59.2c-.05-1.21-.1-2.36-.07-3.45v-.17s-.05-.16-.05-.16c-.49-1.41-1.65-1.72-2.5-1.95-.32-.08-.62-.16-.88-.29-1.37-.68-2.23-2.09-2.24-3.69,0-1.6.81-2.97,2.18-3.67.26-.13.58-.22.91-.31.88-.24,2.09-.56,2.58-2.03l.05-.14.02-9.08-.04-.13c-.36-1.25-1.39-2.1-2.62-2.17h-.03s-4.16,0-4.16,0c.06-.07.12-.15.17-.22.29-.43.38-.92.27-1.37-.15-.61-1.74-3.01-2.32-3.39-1.21-.79-2.22-.44-2.95-.19-.31.11-.6.21-.9.24-1.68.15-3.23-.56-4.15-1.89-.9-1.3-1-2.89-.28-4.36.17-.34.44-.64.74-.95.66-.71,1.57-1.68,1.04-3.35l-.03-.1-.06-.09c-.31-.5-.61-1.01-.92-1.52-1.28-2.12-2.6-4.32-4.15-6.3l-.08-.1-.11-.08c-.7-.5-1.42-.68-2.22-.55-.26.04-.5.14-.69.22-.07.03-.13.05-.18.07l-.1.04L9.63,32.47s-.09.06-.14.09l-.05.03h0c-.59.43-.97,1.06-.97,2v5.06c0,.95,0,2.53-.02,3.28v.13s.02.13.02.13c.4,1.69,1.68,2.04,2.62,2.3.33.09.64.18.91.31,1.32.65,2.15,1.96,2.22,3.48.07,1.54-.65,2.93-1.91,3.71-.34.21-.74.32-1.16.44-.96.28-2.27.65-2.67,2.37l-.03.12v.13c.05,1.08,0,2.22-.05,3.44-.07,1.57-.14,3.2.01,4.69.16,1.61,1.27,2.75,2.76,2.84h56.19s.04,0,.04,0c1.45-.11,2.52-1.17,2.65-2.64.15-1.65.07-3.45,0-5.18M36.27,19.79c.94.18,1.89-.16,2.44-.87.33-.43.47-.94.43-1.46l8.27-5.27,3.22,5.09c-1.17,1.4-1.85,3.03-1.99,4.76-.14,1.77.32,3.59,1.29,5.13.97,1.54,2.42,2.75,4.08,3.39,1.65.64,3.45.72,5.25.24,0,.02.02.03.03.05.17.3.42.76.79,1.14l-44.06.02,19.69-12.45c.14.09.33.19.56.24M66.06,63.01h-9.38c-.28-.53-.78-.92-1.4-1.06.81-.17,1.42-.72,1.59-1.48.1-.47.1-2.57,0-3.03-.11-.49-.4-.89-.83-1.17-.66-.41-1.48-.43-2.03-.3-.8.18-1.36.97-1.47,1.61-.1.53-.11,2.21,0,2.77.17.82.8,1.41,1.65,1.6-.64.14-1.16.53-1.45,1.07H12.42v-5.75c2.39-.7,4.31-2.44,5.23-4.79,1.03-2.64.64-5.58-1.05-7.88-1.15-1.56-2.67-2.34-4.18-2.93v-5.68h40.34c.3.53.81.91,1.42,1.06-.02,0-.03,0-.05,0-.77.16-1.44.83-1.59,1.59-.11.55-.1,2.24,0,2.77.18.99,1.03,1.67,2.12,1.69.02,0,.04,0,.06,0,1.07,0,1.95-.63,2.16-1.54.1-.47.1-2.57,0-3.04-.14-.61-.58-1.1-1.22-1.35-.12-.05-.25-.09-.39-.11.65-.14,1.16-.53,1.43-1.08h9.37v5.76c-3.92,1.19-5.68,4.69-5.68,7.78,0,1.79.57,3.54,1.61,4.92,1,1.34,2.4,2.3,4.07,2.8v5.76Z"/>
  <path d="M8.98,45.93l-.03-.09-3.55-5.76c1-.57,1.63-1.11,1.76-1.79.14-.76-.13-1.53-.71-2.01-.57-.47-1.33-.59-2.04-.32-.46.18-2.51,1.51-2.9,2.03-1.16,1.55-.45,2.79.12,3.79l.08.14c.73,1.28,2.54,4.4,3.69,5.78.47.57,1.11.87,1.76.87.34,0,.68-.08.99-.26.83-.47,1.17-1.43.84-2.38"/>
  <path d="M39.87,24.68c.43.44,1,.66,1.58.66.39,0,.78-.1,1.15-.3.92-.51,1.39-1.51,1.17-2.49-.09-.4-.51-1.09-.84-1.6-.8-1.21-1.12-1.37-1.28-1.44-.89-.43-2.05-.21-2.76.52-.47.48-.71,1.31-.58,1.98.1.5,1.34,2.43,1.57,2.67"/>
  <path d="M42.5,26.39c-.34.56-.44,1.26-.26,1.94.12.43,1.31,2.31,1.71,2.62.4.31.87.46,1.34.46.45,0,.9-.14,1.31-.42.87-.6,1.24-1.64.93-2.64-.1-.33-1.36-2.26-1.62-2.49-.5-.44-1.25-.61-1.98-.46-.6.12-1.11.48-1.43.99"/>
  <path d="M55.4,49.75c-.84-.22-1.73-.02-2.28.5-.27.25-.55.79-.61,1.16-.07.41-.09,2.42.07,2.94.26.86,1.14,1.44,2.17,1.44.05,0,.11,0,.16,0,1.04-.06,1.81-.69,1.98-1.6.08-.42.09-2.66-.07-3.16-.19-.62-.71-1.08-1.43-1.27"/>
  <path d="M54.13,43.22h0c-.77.16-1.44.83-1.59,1.59-.1.49-.11,2.4,0,2.91.21.91,1.11,1.54,2.19,1.54.01,0,.02,0,.03,0,1.07-.01,1.92-.64,2.1-1.57.1-.49.11-2.49,0-3.01-.26-1.16-1.63-1.7-2.74-1.47"/>
</svg>