<?xml version="1.0" encoding="UTF-8"?>
<svg id="Layer_1" xmlns="http://www.w3.org/2000/svg" version="1.1" viewBox="0 0 63.34 79.99">
  <!-- Generator: Adobe Illustrator 29.6.1, SVG Export Plug-In . SVG Version: 2.1.1 Build 9)  -->
  <defs>
    <style>
      .st0 {
        fill: #212121;
      }
    </style>
  </defs>
  <path class="st0" d="M.96,52.92v21.01c.22,2.66,2.16,4.93,4.88,5.15h51.59c2.78-.18,4.71-2.46,4.95-5.15V5.6c-.28-2.62-2.25-4.53-4.88-4.7H5.72C3.42,1,.96,3.25.96,5.6v4.52h0v5.81s0,6.17,0,6.17v30.83s0,0,0,0ZM6.55,10.11v-3.62s50.25,0,50.25,0v67s-50.25,0-50.25,0v-15.18s0-15.4,0-15.4V14.7s0-4.59,0-4.59Z"/>
  <path d="M33.43,27.21v10.93h10.7v3.7h-10.7v10.93h-3.47v-10.93h-10.75v-3.7h10.75v-10.93h3.47Z"/>
</svg>