<?xml version="1.0" encoding="UTF-8"?>
<svg id="Layer_1" data-name="Layer 1" xmlns="http://www.w3.org/2000/svg" viewBox="0 0 45.77 34.9">
  <defs>
    <style>
      .cls-1 {
        fill: #ec1c24;
      }
    </style>
  </defs>
  <path class="cls-1" d="M42.26.02c1.83.33,3.16,1.66,3.49,3.49-.03.34.04.74,0,1.07-.23,1.82-1.89,3.35-3.71,3.48H14.32c-4.81-.49-4.71-7.5-.14-8.04h28.09Z"/>
  <path class="cls-1" d="M45.75,16.92c.03.25.03.82,0,1.07-.23,1.82-1.89,3.35-3.71,3.48H14.48c-5.03-.48-5.03-7.56,0-8.05h27.55c1.82.14,3.48,1.67,3.71,3.49"/>
  <path class="cls-1" d="M45.75,30.32c.03.25.03.82,0,1.07-.23,1.82-1.89,3.35-3.71,3.48H14.48c-5.03-.48-5.03-7.56,0-8.05h27.55c1.82.14,3.48,1.67,3.71,3.49"/>
  <path class="cls-1" d="M4.51.02c4.75.6,4.55,7.89-.4,8.05C-1.02,8.24-1.46.64,3.44.02c.25-.03.82-.03,1.07,0"/>
  <path class="cls-1" d="M3.51,13.46c5.42-.6,6.1,7.62.78,8.02-5.21.39-5.91-7.45-.78-8.02"/>
  <path class="cls-1" d="M3.51,26.86c5.42-.6,6.1,7.62.78,8.02-5.21.39-5.91-7.45-.78-8.02"/>
</svg>