<?xml version="1.0" encoding="UTF-8"?>
<svg id="Layer_1" xmlns="http://www.w3.org/2000/svg" version="1.1" viewBox="0 0 35.94 37.08">
  <!-- Generator: Adobe Illustrator 29.6.1, SVG Export Plug-In . SVG Version: 2.1.1 Build 9)  -->
  <defs>
    <style>
      .st0 {
        fill: #ec1c24;
      }
    </style>
  </defs>
  <g>
    <path class="st0" d="M-72.09,22.34c1.13-.13,2.1.65,2.2,1.78.12,1.3-.07,2.78,0,4.1.04.79.19,1.37,1.06,1.53,7.32.1,14.64.01,21.97.04.95-.05,1.43-.29,1.5-1.31.09-1.32-.08-2.75,0-4.07.16-2.68,3.52-2.81,3.94-.29-.06,1.54.09,3.15,0,4.68-.16,2.66-2.09,4.65-4.74,4.89-7.65.05-15.32.06-22.97,0-2.46-.22-4.5-2.21-4.67-4.7-.09-1.36-.11-3.13-.03-4.49.06-1.06.59-2.04,1.74-2.17"/>
    <path class="st0" d="M-55.63,19.17c.05.01.07-.02.1-.05,1.07-1.1,2.1-2.23,3.15-3.34.49-.52,1.01-1.2,1.55-1.65,1.89-1.58,4.42.8,2.68,2.88-2.4,2.51-4.72,5.11-7.11,7.62-.72.75-1.38,1.68-2.55,1.58-.73-.06-1.19-.6-1.66-1.08-2.66-2.74-5.2-5.63-7.8-8.42-1.29-1.95,1.08-4.07,2.87-2.61.18.15.4.39.57.56,1.22,1.26,2.35,2.62,3.58,3.88.21.21.43.43.68.6V5.48c.01-1.3.83-2.26,2.18-2.15.91.08,1.76.93,1.76,1.86v13.97Z"/>
  </g>
  <g>
    <path class="st0" d="M31.72,6.17c1.3.24,2.24,1.18,2.48,2.47-.02.24.03.53,0,.76-.16,1.29-1.34,2.38-2.64,2.47H11.89c-3.42-.35-3.34-5.32-.1-5.71h19.93Z"/>
    <path class="st0" d="M34.2,18.16c.02.18.02.58,0,.76-.16,1.29-1.34,2.38-2.64,2.47H12.01c-3.57-.34-3.57-5.36,0-5.71h19.55c1.29.1,2.47,1.18,2.64,2.48"/>
    <path class="st0" d="M34.2,27.68c.02.18.02.58,0,.76-.16,1.29-1.34,2.38-2.64,2.47H12.01c-3.57-.34-3.57-5.36,0-5.71h19.55c1.29.1,2.47,1.18,2.64,2.48"/>
    <path class="st0" d="M4.93,6.17c3.37.42,3.23,5.6-.28,5.71-3.64.12-3.96-5.28-.48-5.71.18-.02.58-.02.76,0"/>
    <path class="st0" d="M4.22,15.71c3.85-.42,4.33,5.41.55,5.69-3.7.28-4.2-5.29-.55-5.69"/>
    <path class="st0" d="M4.22,25.22c3.85-.42,4.33,5.41.55,5.69-3.7.28-4.2-5.29-.55-5.69"/>
  </g>
</svg>