<?xml version="1.0" encoding="UTF-8"?>
<svg id="Layer_1" xmlns="http://www.w3.org/2000/svg" version="1.1" viewBox="0 0 103.7 97.88">
  <!-- Generator: Adobe Illustrator 29.6.1, SVG Export Plug-In . SVG Version: 2.1.1 Build 9)  -->
  <path d="M23.59,51.66v22.61h29.39v-11.38c0-.61,1.12-.97,1.69-.7.13.06.57.61.57.7v11.38h2.61c1.06,0,.84,3.28.76,4.01-.29,2.75-2.67,4.92-5.42,5.04-9.74-.52-20.17.67-29.83,0-2.84-.2-5.17-2.28-5.43-5.17-.07-.73-.27-3.88.77-3.88h2.61v-24.1c0-.37.69-.74,1.06-.78,3.31-.39,7.35.29,10.74.01.83.18,1.33,1.03.79,1.76-.09.12-.55.49-.64.49h-9.68ZM56.38,76.54H20.2c-.13,1.53.11,2.93,1.43,3.87.23.16,1.13.65,1.33.65h2.9c-.54-3.07,2.8-3.06,2.26,0h20.35c-.54-3.07,2.8-3.06,2.26,0h2.9c.2,0,1.11-.49,1.33-.65,1.31-.94,1.56-2.35,1.43-3.87Z"/>
  <path d="M51.98,42.21l-14.19,11.43v.42s2.84,4.81,2.84,4.81c.49,1.24-.93,2.21-1.85,1.29-.6-.6-2.09-3.49-2.63-4.44-.12-.21-.24-.42-.26-.66-1.75,1.26-5.73,2.12-4.99,4.92.14.51,2,3.74,2.39,4.26,2.18,2.92,5.46-1.11,7.84-1.89l18.37-6.86-5.02-8.9c-.33-1.05.8-1.83,1.71-1.28.27.16.86,1.26,1.07,1.61,1.73,2.82,3.2,5.81,4.96,8.61.24.49.07.96-.31,1.31l-17.25,6.57c-.13.17,1.89,3.26,2.1,3.76,1.36,3.19-1.72,6.04-4.74,4.46-1.55-.81-2.38-3.78-3.51-5.12-2.03,1.42-4.46,1.65-6.37-.12-.89.33-1.37.88-2.38.97-4.54.39-5.24-5.57-1.09-6.81-.34-1.87.08-3.62,1.57-4.86,7.89-4.19,14.13-10.73,21.15-16.15.52-.3.91-.48,1.46-.09.24.17,1.5,2.26,1.55,2.55.33,1.85-2.01,1.92-2.41.22ZM29.81,62.55c-.82.15-1.95.84-1.63,1.84.41,1.3,1.82.5,2.62.13l-1-1.97ZM40.56,65.24c-.06.19.03.35.1.51.2.46,1.93,3.44,2.21,3.72.95.96,2.32-.06,1.85-1.29-.57-.56-1.75-3.46-2.19-3.75s-1.48.74-1.97.8Z"/>
  <path d="M68.21,15.52c4.6.3,10.01-.52,14.52-.04,1.53.17,2.87,1.51,3.04,3.04.48,4.45-.36,9.74,0,14.28-.27,1.66-1.49,2.89-3.17,3.04-4.48.41-9.59-.32-14.14,0-1.52-.16-2.88-1.53-3.04-3.04-.18-1.68-.16-5.37,0-7.07.14-1.6,1.99-1.5,2.24-.39.25,2.28-.23,4.95.03,7.18.09.76.48,1,1.2,1.06,4.31.39,9.21-.31,13.58,0,.53-.01.97-.4,1.05-.93-.29-4.41.41-9.36.02-13.71-.05-.55-.16-.9-.71-1.13l-14.32-.03c-1.44.32-.47,2.86-.91,3.89-.38.9-1.9.78-2.12-.21-.13-.59-.08-2.67.03-3.3.23-1.22,1.51-2.45,2.73-2.64Z"/>
  <path d="M68.21,50.57c4.6.3,10.01-.52,14.52-.04,1.53.17,2.87,1.51,3.04,3.04.18,1.68.16,5.37,0,7.07-.14,1.6-1.99,1.5-2.24.39-.25-2.28.23-4.95-.03-7.18-.09-.76-.48-1-1.2-1.06-4.31-.39-9.21.31-13.58,0-.58.02-1.04.47-1.06,1.06.31,4.37-.4,9.27,0,13.58.05.55.16.9.71,1.13l14.32.03c1.85-.41-.41-4.81,2.14-4.49,1.27.16,1.04,2.76.93,3.74-.18,1.63-1.57,2.9-3.17,3.04-4.48.41-9.59-.32-14.14,0-1.56-.2-2.84-1.49-3.04-3.04.42-4.5-.56-10.03.01-14.4.18-1.38,1.44-2.6,2.78-2.87Z"/>
  <path d="M18.75,25.69l14.42.08c.48.25.56.58.61,1.09.52,5.7-.41,12.18,0,17.96-.01.82-.42,1.13-1.2,1.2-4.27.39-9.11-.31-13.44,0-.82-.01-1.13-.42-1.2-1.2-.52-5.75.41-12.27,0-18.1.01-.49.34-.9.81-1.03ZM31.51,27.92h-11.31v15.83h11.31v-15.83Z"/>
  <path d="M45.19,14.4c13.63-1.29,15.15,19.34,1.79,20.31-13.29.96-14.87-19.07-1.79-20.31ZM45.33,16.66c-10.03,1-8.89,16.53,1.51,15.78,10.32-.74,9.23-16.85-1.51-15.78Z"/>
  <path d="M74.86,56.22c6.18-.9,7.14,8.3,1.36,8.99-6.04.72-6.98-8.18-1.36-8.99ZM75.14,58.48c-2.75.44-2.23,4.96.92,4.45,2.72-.44,2.26-4.97-.92-4.45Z"/>
  <path d="M73.34,26.79c-3.06.54-3.07-2.81,0-2.26-.32-1.88.68-4.08,2.68-4.46.61-.11,3.01-.17,3.5.04.9.38.78,1.9-.21,2.12-1.84.41-4.15-1.03-3.72,2.29,3.07-.55,3.07,2.8,0,2.26v3.75c0,.99-2.26.99-2.26,0v-3.75Z"/>
  <path d="M63.35,47.95c-.58-.64-.3-1.62.49-1.89.86-.29,5.21-1.19,6.04-1.19,1.38,0,1.7,1.74.39,2.24-.88.33-4.81,1.12-5.76,1.17-.41.02-.86,0-1.15-.33Z"/>
  <path d="M60.58,32.47c1.04-.23,1.75.67,1.34,1.63l-3.63,4.84c-.98.83-2.34-.19-1.8-1.38,1.24-1.25,2.35-3.63,3.57-4.77.16-.15.3-.28.53-.33Z"/>
  <path d="M65.1,38.12c1.18-.27,1.9.95,1.17,1.88l-4.84,3.63c-1.19.54-2.21-.82-1.38-1.8l5.05-3.72Z"/>
  <path d="M23.27,34.74c.56-.13,4.61-.13,5.17,0,1.11.25,1.1,2.03-.12,2.22-.71.11-4.41.12-5.05-.02-1.08-.24-1.08-1.96,0-2.2Z"/>
  <path d="M23.27,39.26c.56-.13,4.61-.13,5.17,0,1.11.25,1.1,2.03-.12,2.22-.71.11-4.41.12-5.05-.02-1.08-.24-1.08-1.96,0-2.2Z"/>
  <path d="M25.53,30.21c.44-.1,2.61-.09,3.02.03,1.01.32.94,2.01-.23,2.19-.48.07-2.48.08-2.9-.05-.98-.31-.93-1.94.11-2.17Z"/>
  <path d="M43.62,20.04c.35-.08.52-.02.85.08.97.31,6.05,2.85,6.87,3.44s.68,1.46-.09,1.99c-1.94,1.31-4.85,2.15-6.88,3.44-.81.25-1.46-.14-1.56-.99-.17-1.45-.17-5.47,0-6.93.06-.48.31-.92.81-1.03ZM45.07,22.98v3.11c.87-.48,1.82-.85,2.69-1.34.15-.09.34.01.28-.28l-2.97-1.49Z"/>
</svg>