<?xml version="1.0" encoding="UTF-8"?>
<svg id="Layer_1" xmlns="http://www.w3.org/2000/svg" version="1.1" viewBox="0 0 93.38 94.9">
  <!-- Generator: Adobe Illustrator 29.6.1, SVG Export Plug-In . SVG Version: 2.1.1 Build 9)  -->
  <defs>
    <style>
      .st0 {
        fill: #212121;
      }
    </style>
  </defs>
  <path class="st0" d="M47.53,10.59c4.79,1.23,4.85,7.62.14,9.02l.14,10.36c3.37.22,6.21,1.53,8.86,3.52.28.21.77.91,1.14.84l3.4-3.51-.02-6.46c-.39-.32-.84-.43-1.26-.75-2.72-2.08-1.39-6.6,2.07-6.83,4.61-.31,5.69,6.07,1.37,7.57v5.98h4.82c1.9-5.37,9.55-4.1,9.01,1.81-.37,4-5.89,5.26-8.19,1.98-.4-.57-.46-1.09-.84-1.61l-5.46.12-3.49,3.53c1.91,2.45,3.07,5.45,3.29,8.57h11.3c.38-.07.79-1.18,1.17-1.57,1.63-1.68,4.4-1.5,5.79.37,2.32,3.1-.72,7.16-4.43,5.88-1.23-.43-1.81-1.41-2.4-2.5l-11.43-.02c-.19,2.42-.87,4.82-2.09,6.91-.5.86-1.01,2.02-2.2,1.47-1.3-.6.26-2.35.62-3.06,5.31-10.62-4.13-22.54-15.66-19.69-8.42,2.09-12.9,12.29-8.63,19.92,1.11,1.99,2.73,3.46,4.41,4.95.28.73-.33,1.62-1.14,1.58-1.25-.07-4.36-4.1-5-5.23-1.21-2.12-1.81-4.39-2.13-6.8l-11.17-.06c-.45.09-.59.9-.87,1.29-1.85,2.59-6.42,1.61-6.81-1.66-.59-4.89,5.83-6.22,7.41-1.77h11.58c.02-3.22,1.47-6.07,3.15-8.7l-3.35-3.41-5.46-.11c-.29.1-.48.97-.7,1.32-1.92,3.18-6.9,2.81-8.15-.73-2.15-6.07,6.95-8.85,8.61-2.78h4.9v-5.98c-2.05-.97-3.2-2.77-2.46-5.05,1.48-4.53,8.81-2.43,7.25,2.5-.42,1.33-1.36,1.87-2.47,2.57l-.02,6.6,3.38,3.53c2.63-2.59,6.28-4.35,10.01-4.46v-10.42c-4.68-1.49-4.53-7.86.29-9.02h1.73ZM46.05,12.78c-2.79.58-2.23,5.25,1.09,4.68,2.92-.49,2.24-5.37-1.09-4.68M30.5,18.97c-1.82.41-1.43,3.77.91,3.22,1.93-.45,1.36-3.73-.91-3.22M61.89,18.97c-2,.41-1.5,3.72.8,3.25,2-.41,1.5-3.72-.8-3.25M22.29,33.14c2.23-2.35-1.35-5.61-3.46-3.39-2.27,2.39,1.41,5.56,3.46,3.39M72.41,29.05c-2.69.39-2.66,4.34-.31,4.71,4.21.66,3.67-5.2.31-4.71M15.39,44.16c-2.15.24-1.81,3.62.53,3.28,2.11-.31,1.52-3.51-.53-3.28M77.45,44.16c-2.06.3-1.81,3.85.8,3.25,1.76-.4,1.39-3.57-.8-3.25"/>
  <path class="st0" d="M50.13,57.81h9.29c2.47,0,4.56,2.52,4.81,4.84.09.86.27,3.52-.53,3.9-2.18,1.06-1.52-2.6-1.62-3.63-.15-1.45-1.19-2.84-2.73-2.81v2.38c0,.79-1.37,1.31-1.94.64-.58-.68.14-2.45-.44-3.16h-2.23v2.66c0,.57-1,.97-1.58.72-.07-.03-.58-.53-.58-.57v-2.81h-2.45v2.81c0,.73-1.86,1.04-2.13-.17l-.04-15.51c-.55-1.78-2.8-1.63-3.02.28l-.08,22.24c-.39.56-.96.8-1.59.44l-5.43-6.37c-1.5-.88-2.89.7-2.04,2.18l9.31,11.13.1,6.51c-.27.82-1.39,1.12-1.94.36-.63-.87.08-4.78-.3-6.04l-9.28-11.31c-1.25-3.13,1.43-6.14,4.69-4.98,1.81.65,2.91,3.28,4.39,4.47v-10.73c-4.37-1.91-7.06-6.71-6.13-11.45.2-1.05,1.13-4.29,2.61-2.59.64.74-.26,2.09-.45,3.03-.67,3.34.9,6.96,3.97,8.5v-5.98c0-.2.45-1.19.6-1.41,1.48-2.27,4.97-2.29,6.29.14.07.14.45,1.07.45,1.13v6.26c4.04-1.82,5.62-6.77,3.6-10.73-1.83-3.58-5.76-5.08-9.57-3.95-.83.24-1.84,1.13-2.53.35-1.42-1.6,1.96-2.53,3.02-2.75,3.8-.76,7.97.93,10.2,4.07,4.01,5.64,1.48,12.98-4.72,15.52v2.38Z"/>
  <path class="st0" d="M58.95,83.98c-.43-.46-.07-4.85-.15-5.77,1.63-1.57,2.85-3.09,3.24-5.39.15-.86-.25-2.26,1.01-2.46,1.9-.3,1.08,3.11.79,4.12-.53,1.84-1.54,3.27-2.89,4.6-.24,1.08.37,4.27-.39,4.94-.43.38-1.25.36-1.62-.04"/>
</svg>