<?xml version="1.0" encoding="UTF-8"?>
<svg id="Layer_1" xmlns="http://www.w3.org/2000/svg" version="1.1" viewBox="0 0 93.38 85.49">
  <!-- Generator: Adobe Illustrator 29.6.1, SVG Export Plug-In . SVG Version: 2.1.1 Build 9)  -->
  <defs>
    <style>
      .st0 {
        fill: #fff;
      }
    </style>
  </defs>
  <path class="st0" d="M88.03,79.01v.16c-.09,3.44-3.52,5.94-6.83,4.82l-12.54-3.52c-7.4,3.49-16.01,4.16-23.86,1.83-6.12-1.81-11.7-5.4-15.83-10.25l2.14.49c2.25.47,4.54.73,6.83.79,8.76,6.24,20.79,6.87,30.18,1.62l14.71,4.13-4.98-13.05c1.3-2.09,2.43-4.23,3.24-6.56,2.93-8.44,1.66-17.99-3.4-25.32-.05-2.29-.28-4.58-.71-6.83-.13-.66-.37-1.41-.46-2.05,0-.05-.04-.14,0-.17,2.62,2.37,4.89,5.08,6.68,8.13,4.98,8.47,5.98,18.79,2.71,28.08-.64,1.81-1.44,3.55-2.35,5.23l4.09,10.71c.19.55.35,1.19.36,1.76"/>
  <path class="st0" d="M37.64,1.25c10.59-.38,20.62,4.06,27.31,12.22,12.21,14.91,9.37,36.94-6.11,48.29-9.83,7.2-23.07,8.52-34.11,3.26-3.61.97-7.2,2.04-10.8,3.03-1.97.54-3.49,1.2-5.51.3-2.46-1.09-3.7-3.98-2.73-6.52l4.1-10.75-.03-.13c-4.76-8.44-5.47-18.81-2.11-27.89C12.27,10.55,24.23,1.74,37.64,1.25M45.42,23.24c2.57,2.57.83,4.87-1.63,6.48-2.69,1.76-5.6,3.34-6.79,6.56-.41,1.13-.8,3.44-.35,4.55,1,2.51,4.75,1.97,4.97-.83.1-1.37-.09-1.88.89-3,1.49-1.7,3.87-2.63,5.62-4.08,6.84-5.66,3.43-14.11-4.32-16.37-4.88-1.42-9.69.24-12.94,4.02-.64.75-2.03,2.58-2.11,3.53-.24,2.66,3.02,3.95,4.62,1.86.78-1.02,1.16-1.93,2.18-2.85,2.8-2.54,7.16-2.57,9.86.14M39.99,47.62c-2.81.25-4.41,3.35-2.99,5.8,1.47,2.53,5.21,2.54,6.67-.01,1.55-2.71-.57-6.06-3.68-5.79"/>
</svg>