<?xml version="1.0" encoding="UTF-8"?>
<svg id="Layer_1" xmlns="http://www.w3.org/2000/svg" version="1.1" viewBox="0 0 40.07 40.07">
  <!-- Generator: Adobe Illustrator 29.6.1, SVG Export Plug-In . SVG Version: 2.1.1 Build 9)  -->
  <defs>
    <style>
      .st0 {
        fill: #ec1c24;
      }
    </style>
  </defs>
  <path class="st0" d="M2.65,24.61c1.36-.15,2.53.78,2.65,2.15.14,1.56-.08,3.34,0,4.93.05.95.23,1.65,1.27,1.83,8.8.11,17.61.01,26.41.05,1.15-.06,1.72-.35,1.81-1.57.11-1.59-.1-3.3,0-4.9.19-3.22,4.23-3.38,4.74-.34-.07,1.85.11,3.79,0,5.63-.19,3.19-2.51,5.6-5.69,5.88-9.2.06-18.42.07-27.62,0-2.96-.27-5.41-2.65-5.62-5.65-.11-1.63-.13-3.77-.04-5.4.07-1.28.71-2.45,2.09-2.61"/>
  <path class="st0" d="M22.43,20.79c.07.01.08-.02.12-.06,1.28-1.32,2.52-2.68,3.79-4.02.59-.62,1.22-1.44,1.86-1.98,2.27-1.91,5.31.96,3.23,3.46-2.88,3.02-5.67,6.14-8.55,9.17-.86.91-1.66,2.02-3.07,1.91-.88-.08-1.43-.72-2-1.3-3.2-3.29-6.25-6.77-9.38-10.12-1.55-2.34,1.3-4.9,3.45-3.14.22.18.48.47.68.68,1.47,1.52,2.83,3.16,4.31,4.66.25.26.51.52.82.72V4.34c.02-1.56.99-2.72,2.62-2.58,1.1.09,2.12,1.11,2.12,2.23v16.8Z"/>
</svg>