<?xml version="1.0" encoding="UTF-8"?>
<svg id="Layer_1" xmlns="http://www.w3.org/2000/svg" version="1.1" viewBox="0 0 85.11 65.03">
  <!-- Generator: Adobe Illustrator 29.6.1, SVG Export Plug-In . SVG Version: 2.1.1 Build 9)  -->
  <defs>
    <style>
      .st0 {
        fill: #212121;
      }
    </style>
  </defs>
  <path class="st0" d="M68.89,52.08c1.26-.84,3.38-4.23,5.01-2.32.75.88.31,1.54-.27,2.33-.71.96-4.02,4.26-4.98,4.98-1.01.76-1.34.89-2.43.12-.58-.41-5.59-5.41-5.7-5.8-.42-1.4.4-2.36,1.86-2.12,1.04.17,2.25,2.63,3.46,2.82v-14.95c0-1.33,3.07-.98,3.07,0v14.95Z"/>
  <path class="st0" d="M79.87,36.63c-1.69-1.96-3.67-3.06-5.83-4.39l-.03-25.27c-.04-2.84-3.18-2.07-5.12-2.16,0-1.71.46-4.11-1.9-4.07h-25.98c-.8,0-3.19,2.45-3.43,2.45s-2.67-2.45-3.47-2.45H7.97c-2.14.13-1.66,2.5-1.7,4.07h-3.7c-.31,0-1.61,1.11-1.42,1.65l.07,49.8,1.34.96c8.4.54,17.8-.77,26.08,0,2.77.26,4.19,1.54,6.53,2.42,4.58,1.71,5.58-1.16,9.4-2.1,2.79-.69,6.01-.16,8.88-.33l.38.13c5.11,7.31,15.37,9.19,22.83,4.17,8.31-5.6,9.81-17.26,3.23-24.86M68.89,8.12h1.79v23.26l-1.79-.26V8.12ZM39.25,5.45c3.06-.98,3.51-1.16,3.51-1.16h23.07v26.74c-1.55.12-3.28.51-4.92,1.17-.83.34-1.55.64-2.2.97h-14.25c-1.05,0-1.89.85-1.89,1.89s.85,1.89,1.89,1.89h9.91c-1.03,1.37-1.84,2.9-2.42,4.51h-7.49c-1.05,0-1.89.85-1.89,1.9s.85,1.89,1.89,1.89h6.54c-.32,2-.24,3.24-.24,3.24-3.91.12-7.89-.58-11.5,1.28V5.45ZM9.34,4.29h23.09l3.49,1.16v44.33c-.98-.33-3.01-1.28-3.96-1.28H9.34V4.29ZM45,54.12c-.39,0-2.23.64-2.75.83-1.84.68-3.56,2.38-5.57,1.86-1.79-.46-4.39-2.69-6.51-2.69H4.23V8.12h2.04v42.55c0,.16.51.73,1.85.73,8.19,0,14.52,0,22.3.17,1.14.02,2.45.42,3.52.82,1.17.44,2.63,1.76,3.64,1.76.88,0,2.12-1.1,3.1-1.53,1.34-.58,1.87-1.22,4.8-1.22,1.92,0,4.09-.03,5.13.16.82.15,1.02,1.82,1.15,2.56h-6.77ZM56.27,55.38c-5.65-8.27-.78-19.97,9.25-21.12,10.52-1.21,18.24,8.96,14.16,18.76-3.98,9.56-17.56,10.92-23.41,2.36"/>
  <path class="st0" d="M29.84,8.67h-14.41c-1.05,0-1.89.85-1.89,1.89s.85,1.89,1.89,1.89h14.41c1.05,0,1.89-.85,1.89-1.89s-.85-1.89-1.89-1.89"/>
  <path class="st0" d="M29.84,16.84h-14.41c-1.05,0-1.89.85-1.89,1.89s.85,1.89,1.89,1.89h14.41c1.05,0,1.89-.85,1.89-1.89s-.85-1.89-1.89-1.89"/>
  <path class="st0" d="M29.84,25.01h-14.41c-1.05,0-1.89.85-1.89,1.89s.85,1.89,1.89,1.89h14.41c1.05,0,1.89-.85,1.89-1.89s-.85-1.89-1.89-1.89"/>
  <path class="st0" d="M29.84,33.17h-14.41c-1.05,0-1.89.85-1.89,1.89s.85,1.89,1.89,1.89h14.41c1.05,0,1.89-.85,1.89-1.89s-.85-1.89-1.89-1.89"/>
  <path class="st0" d="M29.84,41.34h-14.41c-1.05,0-1.89.85-1.89,1.89s.85,1.89,1.89,1.89h14.41c1.05,0,1.89-.85,1.89-1.89s-.85-1.89-1.89-1.89"/>
  <path class="st0" d="M44.45,28.93h17.05c1.05,0,1.9-.85,1.9-1.89s-.85-1.89-1.9-1.89h-17.05c-1.05,0-1.89.85-1.89,1.89s.85,1.89,1.89,1.89"/>
  <path class="st0" d="M44.45,20.63h17.05c1.05,0,1.9-.85,1.9-1.89s-.85-1.89-1.9-1.89h-17.05c-1.05,0-1.89.85-1.89,1.89s.85,1.89,1.89,1.89"/>
  <path class="st0" d="M44.45,12.46h17.05c1.05,0,1.9-.85,1.9-1.89s-.85-1.89-1.9-1.89h-17.05c-1.05,0-1.89.85-1.89,1.89s.85,1.89,1.89,1.89"/>
</svg>