<?xml version="1.0" encoding="UTF-8"?>
<svg id="Layer_1" xmlns="http://www.w3.org/2000/svg" version="1.1" viewBox="0 0 103.7 97.88">
  <!-- Generator: Adobe Illustrator 29.6.1, SVG Export Plug-In . SVG Version: 2.1.1 Build 9)  -->
  <path d="M15.62,33.3l71.05-.05c1.8.11,3.2.43,3.4,2.48v47.59c-.05,1.56-1.3,2.8-2.85,2.85H16.49c-1.56-.05-2.8-1.3-2.85-2.85v-46.68c.46-1.38.27-2.91,1.98-3.34ZM77.2,39.13H26.5l25.43,16.9,25.27-16.9ZM84.18,41.7l-30.98,20.73c-.87.41-1.83.41-2.7,0l-30.98-20.73v38.57h64.66v-38.57Z"/>
  <path d="M48.88,11.82c7.5-.66,16.29,1.75,21.54,7.38,2.64,2.83-.59,6.82-3.85,4.59-1.4-.96-2.47-2.35-4.18-3.35-7.05-4.14-16.12-3.76-22.71,1.1-1.8,1.33-3.19,3.76-5.76,2.57-1.89-.87-2.07-3.35-.71-4.81,3.54-3.81,10.52-7.01,15.67-7.47Z"/>
  <path d="M50.53,21c3.19-.29,6.52.55,9.21,2.26,1.02.65,3.11,2.25,3.31,3.49.41,2.58-2.12,4.46-4.42,3.14-.53-.31-.82-.8-1.28-1.11-2.99-2.04-6.04-2.54-9.39-.97-2.04.95-3.38,3.59-5.9,2.12-1.6-.93-1.86-2.96-.77-4.39,1.93-2.51,6.15-4.25,9.24-4.53Z"/>
</svg>