<?xml version="1.0" encoding="UTF-8"?>
<svg id="Layer_1" xmlns="http://www.w3.org/2000/svg" version="1.1" viewBox="0 0 71.03 74.74">
  <!-- Generator: Adobe Illustrator 29.6.1, SVG Export Plug-In . SVG Version: 2.1.1 Build 9)  -->
  <defs>
    <style>
      .st0 {
        fill: #212121;
      }
    </style>
  </defs>
  <path class="st0" d="M67.68,31.94v21.42h1.55c.38,0,1.17.68,1.13,1.13v11.22c-.06.49-.45.88-.9,1.02H1.63c-.45-.15-.84-.54-.9-1.02l.04-11.43c.06-.36.78-.92,1.09-.92h1.55v-21.42h-1.72s-.56-.31-.63-.38c-.15-.15-.3-.46-.33-.68-.12-.84-.11-3.58,0-4.43.05-.44.35-.75.71-.96l6.98-1.18c.07-.23.09-.46.09-.7.07-1.73-.2-3.89,0-5.53.03-.23.12-.41.25-.58l12.47-9.46.38-.04c10.84,2.72,21.59,5.91,32.4,8.78h.48c4.64-.49,9.56-1.94,14.16-2.32.77-.06,1.28.04,1.62.78.15,5.26.1,10.58.02,15.85-.05.3-.64.85-.91.85h-1.72ZM11.19,19.01v4.81l36.49-5.98-25.72-7.05-10.76,8.22ZM67.68,17.38L3.41,27.84v1.42h64.27v-11.88ZM65,31.94H6.09v21.42h5.36v-17.78c0-.33.88-1.08,1.29-.96l45.91.04c.31,0,1,.69,1,.93v17.78h5.36v-21.42ZM56.97,37.3H14.12v21.42h4.02v-5.23c-.28-.25-.77-.08-1.13-.12-1.46-.17-1.6-2.52.25-2.68l14.88.02c1.9.42,1.36,3.03-.61,2.66v5.36h8.03v-5.36c-.6,0-1.25.1-1.68-.4-.71-.84-.25-2.06.82-2.26l14.88-.02c1.85.17,1.73,2.48.32,2.67-.27.04-.55-.03-.82.02l-.14.11v5.23h4.02v-21.42ZM28.85,53.37h-8.03v10.71h8.03v-10.71ZM50.27,53.37h-8.03v10.71h8.03v-10.71ZM11.44,64.08v-7.91l-.12-.13H3.41v8.03h8.03ZM67.68,56.04h-7.91l-.13.13v7.91h8.03v-8.03ZM18.14,64.08v-2.55l-.12-.13h-3.89v2.68h4.02ZM39.56,61.4h-8.03v2.68h8.03v-2.68ZM56.97,61.4h-3.89l-.13.13v2.55h4.02v-2.68Z"/>
  <path class="st0" d="M48.92,38.74c1.78-.07,3.66.46,3.87,2.53.14,1.37.12,4.22,0,5.61-.31,3.57-6.35,3.54-6.7.08-.11-1.08-.14-5.25.11-6.17.33-1.21,1.5-2,2.72-2.05M50.11,41.48h-1.34v5.27c.43.13.91.13,1.34,0v-5.27Z"/>
  <path class="st0" d="M20.98,41.48v1.21c.49.28,1-.03,1.59.17.98.33,1.15,1.82.28,2.37-.1.06-.57.26-.66.26h-1.21v1.34h3.14c.08,0,.54.37.62.47.62.84.13,2.01-.89,2.18-.75.13-3.53.11-4.31,0-.7-.1-1.1-.5-1.24-1.19.24-2.63-.31-5.81,0-8.37.07-.53.51-1.07,1.05-1.13l4.82.04c.89.38,1.15,1.61.42,2.27-.13.12-.65.37-.8.37h-2.8Z"/>
  <path class="st0" d="M30.94,41.06c.2.04.13-.03.19-.11.64-.99.63-2.35,2.2-2.15.92.11,1.18,1.08.94,1.87-.34,1.09-1.32,2.34-1.71,3.45.43,1.1,1.22,2.19,1.63,3.28.26.68.31,1.41-.38,1.86-1.55,1.01-2.26-.97-2.71-2.08-.09-.07-.92,1.7-1.09,1.88-1,1.08-2.76.1-2.22-1.46.39-1.13,1.3-2.31,1.71-3.48l-1.79-3.64c-.23-1.13.67-1.97,1.8-1.64.67.2,1.22,1.6,1.42,2.22"/>
  <path class="st0" d="M42.46,39.75c1.01,1.03,1.23,2.62.58,3.91-.68,1.34-2.19,1.92-3.64,1.84-.07.86.1,1.87,0,2.72-.19,1.72-2.51,1.64-2.68.08.19-2.66-.25-5.67,0-8.29.05-.53.41-1.11.97-1.21.71-.12,2.92-.05,3.57.18.4.14.91.46,1.2.76M39.39,41.48v1.21c.58.4,1.67-.16,1.24-.91-.25-.43-.83-.28-1.24-.3"/>
</svg>