<?xml version="1.0" encoding="UTF-8"?>
<svg id="Layer_1" xmlns="http://www.w3.org/2000/svg" version="1.1" viewBox="0 0 103.7 88.09">
  <!-- Generator: Adobe Illustrator 29.6.1, SVG Export Plug-In . SVG Version: 2.1.1 Build 9)  -->
  <defs>
    <style>
      .st0 {
        fill: #212121;
      }
    </style>
  </defs>
  <path class="st0" d="M96.94,36.44v30.03h2.17c.53,0,1.64.95,1.59,1.58v15.73c-.08.69-.63,1.23-1.26,1.44H4.35c-.64-.21-1.18-.75-1.26-1.44l.06-16.02c.09-.5,1.09-1.29,1.53-1.29h2.17v-30.03h-2.4c-.05,0-.78-.43-.88-.53-.21-.21-.42-.65-.46-.95-.17-1.17-.16-5.02-.01-6.21.07-.61.49-1.05.99-1.35l9.79-1.65c.1-.32.12-.65.13-.98.1-2.42-.28-5.45,0-7.75.04-.32.16-.57.35-.82L31.83,2.94l.53-.06c15.2,3.82,30.26,8.29,45.42,12.31h.68c6.51-.69,13.4-2.72,19.86-3.26,1.07-.09,1.8.05,2.28,1.09.21,7.37.14,14.83.03,22.22-.07.42-.89,1.19-1.27,1.19h-2.41ZM17.75,18.31v6.75l51.15-8.39L32.84,6.78l-15.09,11.53ZM96.94,16.02L6.84,30.69v1.99h90.1v-16.66ZM93.19,36.44H10.6v30.03h7.51v-24.93c0-.46,1.23-1.51,1.81-1.35l64.36.06c.43-.02,1.4.97,1.4,1.3v24.93h7.51v-30.03ZM81.93,43.94H21.86v30.03h5.63v-7.33c-.39-.35-1.07-.11-1.59-.17-2.05-.24-2.24-3.53.35-3.76l20.86.03c2.66.59,1.91,4.25-.85,3.72v7.51h11.26v-7.51c-.83,0-1.75.15-2.35-.56-1-1.18-.35-2.89,1.14-3.17l20.86-.03c2.6.23,2.43,3.47.45,3.75-.38.05-.77-.04-1.15.03l-.19.16v7.33h5.63v-30.03ZM42.51,66.47h-11.26v15.02h11.26v-15.02ZM72.54,66.47h-11.26v15.02h11.26v-15.02ZM18.11,81.48v-11.09l-.18-.18H6.84v11.26h11.26ZM96.94,70.22h-11.09l-.18.18v11.09h11.26v-11.26ZM27.49,81.48v-3.58l-.18-.18h-5.46v3.75h5.63ZM57.52,77.73h-11.26v3.75h11.26v-3.75ZM81.93,77.73h-5.45l-.18.18v3.58h5.63v-3.75Z"/>
  <path class="st0" d="M70.64,45.97c2.49-.1,5.13.64,5.42,3.55.19,1.92.17,5.92,0,7.86-.43,5.01-8.91,4.96-9.39.11-.15-1.52-.2-7.36.15-8.65.46-1.69,2.1-2.81,3.81-2.88M72.31,49.81h-1.88v7.39c.61.18,1.27.18,1.88,0v-7.39Z"/>
  <path class="st0" d="M31.48,49.81v1.7c.69.39,1.4-.04,2.23.23,1.37.46,1.62,2.56.39,3.33-.15.09-.8.37-.92.37h-1.7v1.88h4.4c.11,0,.75.51.86.66.87,1.17.19,2.82-1.24,3.06-1.06.18-4.95.15-6.04,0-.98-.14-1.54-.71-1.73-1.67.34-3.68-.44-8.15,0-11.74.09-.74.72-1.49,1.47-1.58l6.75.06c1.25.53,1.61,2.25.59,3.18-.19.17-.92.52-1.12.52h-3.93Z"/>
  <path class="st0" d="M45.44,49.22c.28.06.19-.04.26-.15.9-1.38.88-3.29,3.08-3.02,1.28.16,1.66,1.51,1.32,2.61-.47,1.53-1.84,3.28-2.39,4.84.6,1.54,1.71,3.07,2.29,4.59.36.96.44,1.97-.53,2.6-2.17,1.41-3.16-1.37-3.79-2.91-.12-.09-1.29,2.38-1.53,2.64-1.4,1.51-3.86.13-3.1-2.05.55-1.59,1.83-3.24,2.39-4.87l-2.52-5.1c-.32-1.58.94-2.77,2.53-2.3.94.28,1.71,2.24,1.99,3.11"/>
  <path class="st0" d="M61.59,47.39c1.42,1.45,1.72,3.68.81,5.48-.95,1.88-3.07,2.7-5.11,2.58-.1,1.21.14,2.62,0,3.81-.27,2.42-3.52,2.3-3.76.12.26-3.73-.35-7.94,0-11.62.07-.74.58-1.56,1.36-1.69.99-.17,4.09-.07,5.01.26.56.2,1.27.64,1.69,1.07M57.29,49.81v1.7c.81.56,2.34-.23,1.75-1.28-.34-.61-1.16-.39-1.75-.42"/>
</svg>