<?xml version="1.0" encoding="UTF-8"?>
<svg id="Layer_1" xmlns="http://www.w3.org/2000/svg" version="1.1" viewBox="0 0 103.7 88.09">
  <!-- Generator: Adobe Illustrator 29.6.1, SVG Export Plug-In . SVG Version: 2.1.1 Build 9)  -->
  <path d="M10.43,79.97c-.78-.54-1.08-.72-1.17-1.74l.14-60.09c.16-.25.38-.53.62-.71,1.02-.74,5.64-1.99,7.15-2.5,6.97-2.33,13.98-4.55,20.97-6.82l27.28,8.83,26.99-8.79c.93-.21,1.63.38,2.04,1.13v9.98c-.65.86-1.37,1.61-2.49.91-.19-.12-.84-.83-.84-.99v-7.07l-23.96,7.82v56.05l23.93-7.84.02-34.65c.24-2.1,2.55-2.32,3.33-.42v36.76c-.38.43-.7.96-1.28,1.13l-27.16,9.02h-1l-26.71-8.82c-9,2.79-17.95,5.76-26.86,8.82h-1ZM36.55,12.12l-23.96,7.82v56.05l23.96-7.82V12.12ZM63.83,19.93l-23.96-7.82v56.05l23.96,7.82V19.93Z"/>
  <path d="M94.45,25.59v.83c-.51,1.26-1.98,1.86-2.92.67-1.62-2.05,1.85-3.96,2.92-1.51"/>
  <path d="M85.93,19.8c.81-.12,1.73.61,1.86,1.39-.34,5.19.49,11.02.02,16.13-.08.91-.49,1.33-1.29,1.7-4.35.89-9.29,3.66-13.51,4.45-1.51.28-2.36-.06-2.51-1.66-.46-4.96.37-10.62,0-15.65.11-1.17.45-1.32,1.42-1.74,4.33-1.87,9.58-2.91,14.03-4.62M84.46,36.23v-12.47l-10.65,3.49v12.31l10.65-3.33Z"/>
  <path d="M85.93,44.25c1.9-.15,2.84,2.36.37,3.37-4.36,1.78-9.49,2.85-13.94,4.54-2.17-.02-2.59-2.67-.48-3.32l14.05-4.59Z"/>
  <path d="M85.59,59.72c2.21-.35,3.02,2.05,1.16,3.15l-13.88,4.58c-2.27.6-3.34-2.09-1.27-3.1l13.99-4.64Z"/>
  <path d="M85.42,52.07c2.53-.4,3.2,2.2,1.27,3.1l-14,4.64c-2.1.44-3.09-2.1-1.16-3.16l13.88-4.58Z"/>
  <path d="M31.36,19.8c.81-.12,1.73.61,1.86,1.39-.34,5.19.49,11.02.02,16.13-.08.91-.49,1.33-1.29,1.7-4.35.89-9.29,3.66-13.51,4.45-1.51.28-2.36-.06-2.51-1.66-.46-4.96.37-10.62,0-15.65.11-1.17.45-1.32,1.42-1.74,4.33-1.87,9.58-2.91,14.03-4.62M29.89,36.23v-12.47l-10.65,3.49v12.31l10.65-3.33Z"/>
  <path d="M31.36,44.25c1.9-.15,2.84,2.36.37,3.37-4.36,1.78-9.49,2.85-13.94,4.54-2.17-.02-2.59-2.67-.48-3.32l14.05-4.59Z"/>
  <path d="M30.85,52.07c2.53-.4,3.2,2.2,1.27,3.1l-14,4.64c-2.1.44-3.09-2.1-1.16-3.16l13.88-4.58Z"/>
  <path d="M31.02,59.72c2.14-.34,3.01,1.91,1.27,3.1l-7.66,2.47c-1.77-.19-2.33-1.95-.95-3.09,2.26-.52,5.14-2.13,7.34-2.48"/>
  <path d="M17.03,64.37c2.67-.61,2.96,3.21.46,3.14-1.97-.06-1.97-2.79-.46-3.14"/>
  <path d="M44.66,43.75c.46-.06.9.15,1.33.26,4.42,1.11,8.93,3.26,13.4,4.41.69.23,1.05.82,1.13,1.53.53,5.03-.42,11.01,0,16.15-.45,2.07-2.17,1.35-3.62.96-4.2-1.15-8.39-3-12.61-4.19-.8-.4-1-.89-1.08-1.75-.46-4.95.36-10.61,0-15.64.02-.8.66-1.62,1.46-1.72M57.18,51.2l-10.65-3.49v12.47l10.65,3.33v-12.31Z"/>
  <path d="M44.32,27.62c.46-.1.93-.05,1.39.04,4.25.8,9.26,3.59,13.64,4.5,2.09,1.04,1.18,3.67-1.04,3.2-4.24-1.82-9.63-2.69-13.76-4.54-1.65-.74-1.75-2.85-.22-3.2"/>
  <path d="M43.58,35.78c.33-.4,1.31-.69,1.83-.51,4.25,1.8,9.48,2.67,13.64,4.49,2.49,1.09,1.63,3.69-.92,3.24-4.23-1.79-9.5-2.68-13.63-4.5-1.09-.48-1.77-1.7-.92-2.73"/>
  <path d="M43.75,22.71c-1.14-1.05-.22-3.08,1.32-2.91,4.4,1.72,9.65,2.73,13.94,4.54,2.24.95,1.95,3.11-.36,3.37-4.47-1.6-9.28-2.79-13.7-4.45-.28-.1-1.01-.39-1.19-.56"/>
</svg>