<?xml version="1.0" encoding="UTF-8"?>
<svg id="Layer_1" xmlns="http://www.w3.org/2000/svg" version="1.1" viewBox="0 0 35.94 37.08">
  <!-- Generator: Adobe Illustrator 29.6.1, SVG Export Plug-In . SVG Version: 2.1.1 Build 9)  -->
  <defs>
    <style>
      .st0 {
        fill: #fff;
      }

      .st1 {
        fill: #ec1c24;
      }
    </style>
  </defs>
  <g>
    <path class="st1" d="M-72.09,22.34c1.13-.13,2.1.65,2.2,1.78.12,1.3-.07,2.78,0,4.1.04.79.19,1.37,1.06,1.53,7.32.1,14.64.01,21.97.04.95-.05,1.43-.29,1.5-1.31.09-1.32-.08-2.75,0-4.07.16-2.68,3.52-2.81,3.94-.29-.06,1.54.09,3.15,0,4.68-.16,2.66-2.09,4.65-4.74,4.89-7.65.05-15.32.06-22.97,0-2.46-.22-4.5-2.21-4.67-4.7-.09-1.36-.11-3.13-.03-4.49.06-1.06.59-2.04,1.74-2.17"/>
    <path class="st1" d="M-55.63,19.17c.05.01.07-.02.1-.05,1.07-1.1,2.1-2.23,3.15-3.34.49-.52,1.01-1.2,1.55-1.65,1.89-1.58,4.42.8,2.68,2.88-2.4,2.51-4.72,5.11-7.11,7.62-.72.75-1.38,1.68-2.55,1.58-.73-.06-1.19-.6-1.66-1.08-2.66-2.74-5.2-5.63-7.8-8.42-1.29-1.95,1.08-4.07,2.87-2.61.18.15.4.39.57.56,1.22,1.26,2.35,2.62,3.58,3.88.21.21.43.43.68.6V5.48c.01-1.3.83-2.26,2.18-2.15.91.08,1.76.93,1.76,1.86v13.97Z"/>
  </g>
  <g>
    <path class="st0" d="M17.61,6.29h.61c6.4.19,11.05,6.12,9.61,12.42-1.31,5.72-7.35,9.13-12.95,7.34l-4.61,1.13c-1.05.07-1.24-.57-1.2-1.47.06-1.32.26-2.65.31-3.97-4.05-6.64.46-15.14,8.24-15.45M13.9,15.2c-.45.08-.88.55-.95.99-.2,1.41,1.67,1.99,2.29.79.49-.95-.3-1.96-1.34-1.79M17.74,15.21c-.48.07-.91.52-.98,1-.2,1.29,1.47,1.97,2.22.9.64-.92-.14-2.06-1.24-1.9M21.54,15.21c-1.46.21-1.26,2.69.51,2.4,1.42-.23,1.24-2.66-.51-2.4"/>
    <path class="st0" d="M31.66,21.73c-1.14,5.23-5.36,9.47-10.58,10.64-.72,3.03-5.15,3.1-5.87.04-.82-3.49,3.96-5.2,5.62-2.08,4.96-1.18,8.86-5.75,9.11-10.88.22-4.46-.21-8.24-3.49-11.52C19.22.7,6.55,5.46,6.02,15.61c-.09,1.62.19,3.59-.01,5.15-.06.5-.43.9-.94.96-.62.07-2.44.06-3.01-.12-.72-.22-1.31-.9-1.45-1.63.01-2.16-.2-4.54-.06-6.7.08-1.26.93-2.09,2.19-2.18.34-.02,2.14.06,2.27-.02,1.21-2.86,3.32-5.28,6.01-6.83,4.28-2.45,9.64-2.45,13.92,0,2.7,1.55,4.81,3.96,6.01,6.83,1.06.13,2.34-.21,3.31.31.71.38,1.09,1.11,1.15,1.9-.11,2.05.14,4.24,0,6.27-.05.76-.39,1.43-1.04,1.83-.84.52-1.77.31-2.71.36"/>
  </g>
</svg>