<?xml version="1.0" encoding="UTF-8"?>
<svg id="Layer_1" xmlns="http://www.w3.org/2000/svg" version="1.1" viewBox="0 0 48.6 46.33">
  <!-- Generator: Adobe Illustrator 29.6.1, SVG Export Plug-In . SVG Version: 2.1.1 Build 9)  -->
  <defs>
    <style>
      .st0 {
        fill: #ec1c24;
      }
    </style>
  </defs>
  <path class="st0" d="M23.83,7.12l.79-.02c8.39.27,14.48,8.04,12.59,16.3-1.72,7.5-9.63,11.96-16.98,9.62l-6.04,1.48c-1.38.09-1.62-.74-1.57-1.92.07-1.73.34-3.47.4-5.2-5.3-8.7.61-19.84,10.8-20.25ZM18.97,18.8c-.59.1-1.16.71-1.24,1.3-.27,1.84,2.19,2.6,3,1.04.65-1.25-.39-2.57-1.76-2.34ZM24,18.8c-.63.09-1.19.69-1.29,1.31-.26,1.68,1.93,2.58,2.91,1.18.84-1.2-.19-2.7-1.62-2.49ZM28.97,18.8c-1.91.28-1.66,3.52.66,3.15,1.86-.3,1.63-3.49-.66-3.15Z"/>
  <path class="st0" d="M42.24,27.35c-1.49,6.85-7.02,12.41-13.87,13.94-.94,3.97-6.74,4.07-7.69.06-1.08-4.58,5.19-6.82,7.36-2.73,6.5-1.54,11.61-7.54,11.94-14.25.29-5.84-.28-10.8-4.57-15.1C25.94-.21,9.33,6.03,8.63,19.33c-.11,2.12.24,4.71-.01,6.75-.08.66-.56,1.17-1.23,1.25-.81.1-3.2.08-3.94-.15-.94-.29-1.71-1.18-1.91-2.14.01-2.84-.27-5.96-.08-8.78.11-1.65,1.23-2.74,2.87-2.86.45-.03,2.81.07,2.98-.03,1.59-3.75,4.35-6.92,7.88-8.95,5.61-3.22,12.63-3.22,18.23,0,3.53,2.03,6.3,5.19,7.88,8.95,1.39.17,3.07-.27,4.34.4.93.5,1.43,1.45,1.5,2.49-.14,2.69.18,5.55,0,8.22-.07.99-.51,1.87-1.36,2.4-1.1.68-2.32.4-3.55.47Z"/>
</svg>