<?xml version="1.0" encoding="UTF-8"?>
<svg id="Layer_1" xmlns="http://www.w3.org/2000/svg" version="1.1" viewBox="0 0 34.91 32.37">
  <!-- Generator: Adobe Illustrator 29.6.1, SVG Export Plug-In . SVG Version: 2.1.1 Build 9)  -->
  <defs>
    <style>
      .st0 {
        fill: #ec1c24;
      }
    </style>
  </defs>
  <path class="st0" d="M17.11,4.31h.59c6.21.19,10.72,5.94,9.32,12.05-1.27,5.55-7.13,8.85-12.57,7.12l-4.47,1.09c-1.02.07-1.2-.55-1.17-1.42.05-1.28.25-2.57.3-3.85-3.92-6.44.45-14.68,8-14.99ZM13.51,12.95c-.44.07-.86.53-.92.96-.2,1.36,1.62,1.93,2.22.77.48-.92-.29-1.9-1.3-1.73ZM17.23,12.95c-.47.07-.88.51-.95.97-.19,1.25,1.43,1.91,2.16.87.62-.89-.14-2-1.2-1.84ZM20.92,12.95c-1.41.21-1.23,2.61.49,2.33,1.38-.22,1.2-2.58-.49-2.33Z"/>
  <path class="st0" d="M30.73,19.28c-1.1,5.07-5.2,9.19-10.27,10.32-.69,2.94-4.99,3.01-5.69.04-.8-3.39,3.84-5.05,5.45-2.02,4.81-1.14,8.59-5.58,8.84-10.55.21-4.33-.21-8-3.38-11.18C18.67-1.12,6.38,3.5,5.86,13.34c-.08,1.57.18,3.49-.01,5-.06.49-.42.87-.91.93-.6.07-2.37.06-2.92-.11-.7-.22-1.27-.87-1.41-1.59.01-2.1-.2-4.41-.06-6.5.08-1.22.91-2.03,2.12-2.12.33-.02,2.08.05,2.2-.02,1.17-2.78,3.22-5.12,5.83-6.62C14.86-.06,20.06-.06,24.21,2.32c2.62,1.5,4.66,3.85,5.83,6.62,1.03.13,2.27-.2,3.21.3.69.37,1.06,1.07,1.11,1.84-.11,1.99.13,4.11,0,6.08-.05.73-.37,1.38-1.01,1.78-.81.5-1.72.3-2.63.35Z"/>
</svg>