<?xml version="1.0" encoding="UTF-8"?>
<svg id="Layer_1" xmlns="http://www.w3.org/2000/svg" version="1.1" viewBox="0 0 71.03 74.74">
  <!-- Generator: Adobe Illustrator 29.6.1, SVG Export Plug-In . SVG Version: 2.1.1 Build 9)  -->
  <path d="M49.24,31.46l-.15-1.38h10.08c1.04.19.86,1.38.31,1.38h-10.24Z"/>
  <path d="M49.24,28.9l-.15-1.38h10.08c1.04.19.86,1.38.31,1.38h-10.24Z"/>
  <path d="M16.41,65.53C6.76,56.15,2.59,42.44,3.84,29.16c7.59-.83,15.54-2.16,22.03-6.4,6.37,4.3,14.38,5.47,21.88,6.47.11.07.27,1.28.29,1.54.76,10.03-1.82,20.85-7.65,29.08-3.73,5.27-8.79,9.64-14.53,12.6-3.41-1.88-6.67-4.2-9.46-6.92M44.06,32.84c-6.3-1.03-12.6-2.41-18.32-5.32-5.54,3.03-11.84,4.25-18.02,5.29-.49,12.14,4.39,24.08,13.73,31.86.81.68,3.22,2.61,4.08,2.93.79.3,1.97-.75,2.66-1.22,10.94-7.51,16.46-20.38,15.87-33.54"/>
  <path d="M58.1,17.73c.7-1.22,1.13-2.56,1.39-3.95,3.54-.37,6.94.12,7.9,4.04v48.15c0,1.57-2.56,4.19-4.03,4.19h-30.86l4.65-3.96,25.64-.12c.45-.24.68-.66.66-1.17V18.72c.12-.24-.63-.98-.69-.98h-4.65Z"/>
  <path d="M48.65,11.33h8.15c.97,0,1.19,1.31,1.15,2.06-.24,3.87-3.37,6.39-7.08,6.63-4.15.27-10.66.3-14.8,0-3.26-.24-6.42-2.53-6.89-5.91-.12-.84-.15-2.78,1.1-2.78h8.15c.34-2.12-.03-4.64.99-6.56,1.67-3.16,6.2-3.35,8.07-.29,1.2,1.97.8,4.62,1.16,6.85M42.97,4.81c-2.18.5-1.66,4.24.84,3.9,2.62-.36,2.11-4.57-.84-3.9"/>
  <path d="M19.85,17.81c.16-1.01,1.23-2.52,2.06-3.12,1.74-1.29,3.68-.85,5.71-.91.03,1.44.74,2.72,1.37,3.96h-4.34c-1.32,0-.67,3.71-.87,4.54l-3.93,1.86c.21-1.93-.29-4.48,0-6.33"/>
  <path d="M42.71,59.19l.99-1.38h15.09c1.56.19,1.29,1.38.46,1.38h-16.54Z"/>
  <path d="M45,55.38l.56-1.38h13.54c1,0,1.21,1.09.16,1.23l-14.26.15Z"/>
  <path d="M48.17,45.23l.67-1.38h10.31c1.07.19.88,1.38.31,1.38h-11.3Z"/>
  <path d="M49.73,41.42l.38-1.38h9.25c.69,0,.83,1.09.11,1.23l-9.74.15Z"/>
  <path d="M35.55,41.81v5.56l-.23.23h-6.48c.05.15-.15.33-.15.38v6.33h-5.64v-6.71h-6.63l-.23-.23v-5.56h6.63l.23-.23v-6.63h5.56c.41,0,.08,1.03.07,1.29-.05,1.63-.03,3.29.14,4.9.03.26-.24.48.09.66h6.63Z"/>
</svg>