<?xml version="1.0" encoding="UTF-8"?>
<svg id="Layer_1" xmlns="http://www.w3.org/2000/svg" version="1.1" viewBox="0 0 103.7 97.88">
  <!-- Generator: Adobe Illustrator 29.6.1, SVG Export Plug-In . SVG Version: 2.1.1 Build 9)  -->
  <path d="M88.47,16.52l.86,3.64c2.5,17.75-15.48,31.9-32.18,24.41-14.79-6.64-18.2-26-6.69-37.35,12.04-11.88,32.91-6.8,38.01,9.3ZM81.51,33c.29.16,1.2-1.77,1.33-2.07,7.32-16.34-11.36-32.1-26.34-22.09-10.31,6.89-10.51,22.83.06,29.61.23.15.47.38.76.25-.21-5.54,3.6-10.6,8.8-12.38l-2.74-.26c-8.72-2.53-6.82-15.41,2.4-15.06,6.8.26,9.72,8.95,4.67,13.4l-2.34,1.45c5.47-.76,11.09,2.1,13.4,7.16ZM63.18,17.28c-1.82,2.94,2.77,5.52,4.42,2.66,1.64-2.84-2.66-5.49-4.42-2.66ZM67.43,31.3c-3.88,1.37-6.06,5.9-4.58,9.77,5.14,1.12,10.64-.17,14.76-3.47-.55-4.89-5.55-7.94-10.18-6.3Z"/>
  <path d="M37.81,96.22c-.88.29-2.4.65-3.31.78-14.38,2.08-25.23-13.78-18.1-26.41l12.63-20.16,12.83,8.04-12.02,19.45c-1.4,3.04,2.3,5.33,4.4,2.72l12.06-19.42,12.95,8.01-12.46,20.17c-2.1,2.95-5.5,5.68-8.98,6.82ZM30.54,57.41l-2.62,4.19,4.4,2.72,2.55-4.33-4.33-2.57ZM25.1,66.21c-.32.17-3.45,5.4-3.84,6.12-8.02,14.89,11.02,26.74,20.8,14.85,1.93-2.34,3.19-5.23,4.92-7.7l-4.4-2.72c-2.48,3.31-3.9,8.43-8.19,9.78-3.35,1.06-7.18-.36-8.92-3.41-3.24-5.67,1.63-9.72,4.11-14.41-1.24-.54-2.79-2.03-3.98-2.48-.19-.07-.29-.14-.5-.03ZM47.93,68.17l-2.62,4.19,4.4,2.72,2.55-4.33-4.33-2.57Z"/>
  <polygon points="37.9 25.27 40.82 37.68 35.85 38.85 37.61 46.3 32.64 47.47 29.72 35.06 34.69 33.89 32.93 26.44 37.9 25.27"/>
  <polygon points="77.8 49.95 78.97 54.92 71.51 56.67 72.68 61.64 60.26 64.56 59.09 59.59 66.54 57.84 65.37 52.87 77.8 49.95"/>
</svg>