<?xml version="1.0" encoding="UTF-8"?>
<svg id="Layer_1" xmlns="http://www.w3.org/2000/svg" version="1.1" viewBox="0 0 71.03 74.74">
  <!-- Generator: Adobe Illustrator 29.6.1, SVG Export Plug-In . SVG Version: 2.1.1 Build 9)  -->
  <defs>
    <style>
      .st0 {
        fill: #212121;
      }
    </style>
  </defs>
  <path class="st0" d="M66.8,35.85v4.19c-1.65,21.06-23.19,34.71-43.01,26.44C9.26,60.41,1.6,44.15,6.17,28.98c.25-.84.8-2.69,1.22-3.38.68-1.11,2.41-.53,2.33.69-8.48,19.73,6.44,41.29,27.94,40.13,12.89-.7,24.12-10.83,26.26-23.52,3.53-20.99-15.85-38.34-36.34-32.28-.9.27-3.02,1.27-3.72,1.3-1.5.05-1.82-1.64-.48-2.39,2.28-1.28,7.06-2.26,9.68-2.49,17.15-1.54,32.68,11.63,33.74,28.81"/>
  <path class="st0" d="M34.31,17.9c17.09-1.26,27.86,18.17,17.67,32.01-10,13.57-31.61,9.24-35.65-7.07-.67-2.71-.89-8.41.32-10.94.39-.82,1.3-1.09,2-.45.83.75.09,1.84-.08,2.77-3.51,19.49,21.29,29.22,31.83,13.57,8.44-12.53-1.85-29.22-16.8-27.35-.98.12-2.97.81-3.77.63-1.01-.23-1.04-1.76-.15-2.25.81-.45,3.62-.85,4.62-.92"/>
  <path class="st0" d="M11.89,13.94v-7.37c0-.64,1.52-1.06,1.96-.47l12.71,13.13c.79,2.49.07,5.37.41,7.97l10.01,10.27c.45,1.39-.97,2.11-2.04,1.36l-9.84-10.04c-2.57-.41-5.61.2-8.15-.1-.22-.03-.42-.06-.6-.21l-11.77-12.44c-.74-.49-.22-2.1.47-2.1h6.83ZM24.33,26.25v-5.75l-9.94-10.35c-.11,1.23-.08,2.49-.07,3.72,0,.69.36,1.28-.15,2.01-.06.09-.55.49-.59.49h-5.21l9.27,9.87h6.7Z"/>
  <path class="st0" d="M34.11,28.99c.87-.8,4.14-.14,5.23.3,6.54,2.58,7.8,11.46,2.37,15.89-6.24,5.09-16.03,0-15.21-7.91.21-2.07,2.41-1.84,2.57-.39.04.4-.15.71-.14,1.06.3,6.46,8.22,9.38,12.31,4.2,3.28-4.16.62-10.52-4.67-11.02-.56-.05-1.21.08-1.75,0-.94-.15-1.41-1.47-.71-2.11"/>
</svg>