<?xml version="1.0" encoding="UTF-8"?>
<svg id="Layer_1" xmlns="http://www.w3.org/2000/svg" version="1.1" viewBox="0 0 48.6 46.33">
  <!-- Generator: Adobe Illustrator 29.6.1, SVG Export Plug-In . SVG Version: 2.1.1 Build 9)  -->
  <defs>
    <style>
      .st0 {
        fill: #ec1c24;
      }
    </style>
  </defs>
  <path class="st0" d="M45.68,22.13v2.86c-1.13,14.39-15.85,23.72-29.39,18.07C6.36,38.91,1.13,27.8,4.25,17.44c.17-.57.55-1.84.84-2.31.46-.76,1.65-.36,1.59.47-5.79,13.48,4.4,28.21,19.09,27.42,8.81-.48,16.48-7.4,17.94-16.07C46.12,12.61,32.88.76,18.88,4.89c-.62.18-2.07.87-2.54.89-1.03.04-1.24-1.12-.33-1.63,1.56-.87,4.82-1.54,6.61-1.7,11.72-1.05,22.33,7.95,23.06,19.68"/>
  <path class="st0" d="M23.48,9.86c11.68-.86,19.04,12.42,12.07,21.87-6.83,9.27-21.6,6.32-24.35-4.83-.46-1.85-.61-5.74.22-7.47.27-.56.89-.74,1.36-.3.57.51.06,1.26-.05,1.89-2.4,13.32,14.54,19.97,21.75,9.27,5.77-8.56-1.27-19.97-11.48-18.69-.67.08-2.03.55-2.58.43-.69-.16-.71-1.2-.1-1.54.55-.31,2.47-.58,3.16-.63"/>
  <path class="st0" d="M8.16,7.16V2.12c0-.44,1.04-.73,1.34-.32l8.68,8.97c.54,1.7.05,3.67.28,5.45l6.84,7.02c.31.95-.66,1.44-1.39.93l-6.72-6.86c-1.76-.28-3.83.14-5.57-.07-.15-.02-.29-.04-.41-.15L3.17,8.59c-.51-.33-.15-1.43.32-1.43h4.67ZM16.66,15.57v-3.93l-6.79-7.07c-.07.84-.06,1.7-.05,2.54,0,.47.25.87-.1,1.37-.04.06-.38.33-.4.33h-3.56l6.33,6.75h4.58Z"/>
  <path class="st0" d="M23.34,17.44c.6-.55,2.83-.09,3.57.2,4.47,1.77,5.33,7.83,1.62,10.86-4.26,3.48-10.95,0-10.39-5.4.15-1.42,1.65-1.26,1.75-.27.03.27-.11.48-.09.73.2,4.42,5.62,6.41,8.41,2.87,2.24-2.84.42-7.19-3.19-7.53-.38-.04-.83.05-1.2,0-.64-.1-.97-1-.48-1.44"/>
</svg>