<?xml version="1.0" encoding="UTF-8"?>
<svg id="Layer_1" xmlns="http://www.w3.org/2000/svg" version="1.1" viewBox="0 0 35.94 37.08">
  <!-- Generator: Adobe Illustrator 29.6.1, SVG Export Plug-In . SVG Version: 2.1.1 Build 9)  -->
  <defs>
    <style>
      .st0 {
        fill: #ec1c24;
      }
    </style>
  </defs>
  <g>
    <path class="st0" d="M-72.09,22.34c1.13-.13,2.1.65,2.2,1.78.12,1.3-.07,2.78,0,4.1.04.79.19,1.37,1.06,1.53,7.32.1,14.64.01,21.97.04.95-.05,1.43-.29,1.5-1.31.09-1.32-.08-2.75,0-4.07.16-2.68,3.52-2.81,3.94-.29-.06,1.54.09,3.15,0,4.68-.16,2.66-2.09,4.65-4.74,4.89-7.65.05-15.32.06-22.97,0-2.46-.22-4.5-2.21-4.67-4.7-.09-1.36-.11-3.13-.03-4.49.06-1.06.59-2.04,1.74-2.17"/>
    <path class="st0" d="M-55.63,19.17c.05.01.07-.02.1-.05,1.07-1.1,2.1-2.23,3.15-3.34.49-.52,1.01-1.2,1.55-1.65,1.89-1.58,4.42.8,2.68,2.88-2.4,2.51-4.72,5.11-7.11,7.62-.72.75-1.38,1.68-2.55,1.58-.73-.06-1.19-.6-1.66-1.08-2.66-2.74-5.2-5.63-7.8-8.42-1.29-1.95,1.08-4.07,2.87-2.61.18.15.4.39.57.56,1.22,1.26,2.35,2.62,3.58,3.88.21.21.43.43.68.6V5.48c.01-1.3.83-2.26,2.18-2.15.91.08,1.76.93,1.76,1.86v13.97Z"/>
  </g>
  <g>
    <path class="st0" d="M35.66,17.68v2.37c-.93,11.9-13.11,19.62-24.31,14.95C3.13,31.56-1.2,22.37,1.39,13.8c.14-.48.45-1.52.69-1.91.38-.63,1.36-.3,1.32.39-4.79,11.15,3.64,23.34,15.79,22.68,7.29-.4,13.64-6.12,14.84-13.29C36.03,9.8,25.07,0,13.49,3.42c-.51.15-1.71.72-2.1.73-.85.03-1.03-.92-.27-1.35,1.29-.72,3.99-1.28,5.47-1.41,9.69-.87,18.47,6.58,19.07,16.29"/>
    <path class="st0" d="M17.29,7.53c9.66-.71,15.75,10.27,9.99,18.09-5.65,7.67-17.87,5.23-20.15-4-.38-1.53-.5-4.75.18-6.18.22-.46.73-.61,1.13-.25.47.43.05,1.04-.04,1.57-1.98,11.02,12.03,16.52,17.99,7.67,4.77-7.08-1.05-16.52-9.49-15.46-.56.07-1.68.46-2.13.36-.57-.13-.59-.99-.08-1.27.46-.26,2.05-.48,2.61-.52"/>
    <path class="st0" d="M4.62,5.29V1.12c0-.36.86-.6,1.11-.27l7.18,7.42c.44,1.41.04,3.04.23,4.51l5.66,5.81c.25.79-.55,1.19-1.15.77l-5.56-5.68c-1.46-.23-3.17.11-4.61-.06-.13-.01-.24-.03-.34-.12L.49,6.48c-.42-.28-.12-1.18.27-1.18h3.86ZM11.65,12.25v-3.25L6.03,3.15c-.06.7-.05,1.4-.04,2.1,0,.39.21.72-.08,1.14-.03.05-.31.28-.33.28h-2.94l5.24,5.58h3.79Z"/>
    <path class="st0" d="M17.18,13.8c.49-.45,2.34-.08,2.96.17,3.69,1.46,4.41,6.48,1.34,8.98-3.53,2.88-9.06,0-8.6-4.47.12-1.17,1.36-1.04,1.45-.22.02.22-.09.4-.08.6.17,3.65,4.65,5.3,6.96,2.37,1.85-2.35.35-5.95-2.64-6.23-.32-.03-.68.04-.99,0-.53-.09-.8-.83-.4-1.2"/>
  </g>
</svg>