<?xml version="1.0" encoding="UTF-8"?>
<svg id="Layer_1" xmlns="http://www.w3.org/2000/svg" version="1.1" viewBox="0 0 93.38 94.9">
  <!-- Generator: Adobe Illustrator 29.6.1, SVG Export Plug-In . SVG Version: 2.1.1 Build 9)  -->
  <defs>
    <style>
      .st0 {
        fill: #212121;
      }
    </style>
  </defs>
  <path class="st0" d="M42.3,1.32c37.42-2.92,63.18,36.29,44.54,69.19-18.74,33.08-67.79,30.18-82.78-4.66C-8.24,37.24,11.18,3.75,42.3,1.32M42.3,8.32C11.42,11.06-3.68,49.26,16.51,72.88c20.4,23.87,59.39,15.62,67.93-14.52,7.74-27.32-14.2-52.52-42.13-50.05"/>
  <path class="st0" d="M45.33,40.56c9.45-1.5,11.32,12.35,2.59,13.85-9.4,1.61-11.37-12.46-2.59-13.85"/>
  <path class="st0" d="M74.81,42.42c6.55,6.58-3.32,16.46-9.78,10.23-6.84-6.59,3.31-16.73,9.78-10.23"/>
  <path class="st0" d="M18.43,52.55c-6.55-6.58,3.32-16.46,9.78-10.23,6.83,6.58-3.36,16.68-9.78,10.23"/>
</svg>