<?xml version="1.0" encoding="UTF-8"?>
<svg id="Layer_1" xmlns="http://www.w3.org/2000/svg" version="1.1" viewBox="0 0 71.03 74.74">
  <!-- Generator: Adobe Illustrator 29.6.1, SVG Export Plug-In . SVG Version: 2.1.1 Build 9)  -->
  <defs>
    <style>
      .st0 {
        fill: #212121;
      }
    </style>
  </defs>
  <path class="st0" d="M41.98,13.39c2.13.33,4.12,1.41,5.96,2.5l5.47-4.06c.52-.16,1,.2,1.39.51,1.52,1.88,3.99,3.54,5.48,5.35.33.4.73.85.67,1.42-.11.9-2.43,3.63-3.05,4.64-.26.43-.73,1.02-.65,1.5l2.35,5.72,6.76,1.17c.38.21.61.93.66,1.35.28,2.44-.18,5.41-.03,7.9-.09.44-.36.81-.79.97-1.7.64-4.55.7-6.39,1.17l-.35.18c-.67,2.07-1.44,4.08-2.48,6l4,5.7c.06.45-.07.61-.31.94-1.45,1.95-4.18,3.74-5.67,5.79-1.21,1.19-2.45-.04-3.5-.77-1.22-.86-2.36-1.89-3.61-2.7-1.81,1.1-3.77,1.92-5.76,2.62-.64,1.97-.72,4.32-1.35,6.26-.25.79-.48,1.31-1.38,1.39-1.68.15-5.91.19-7.53-.04-.83-.12-1.22-.37-1.49-1.16-.65-1.92-.77-4.47-1.27-6.47-2.03-.65-4.27-1.33-5.96-2.66-.34.32-.71.65-1.08.93-1.04.76-2.92,2.32-3.95,2.85-.6.31-1.26.57-1.83.06-1.62-1.94-4.01-3.84-5.53-5.8-.48-.61-.73-1.02-.4-1.78.57-1.32,2.44-3.18,3.27-4.53.12-.2.39-.48.38-.71-.97-1.89-1.83-3.87-2.27-5.97-1.86-.38-3.79-.52-5.64-.97-1.08-.26-1.89-.29-2.02-1.63-.15-1.55-.21-6.33.04-7.78.09-.54.31-.88.82-1.07,1.03-.39,3.48-.8,4.66-1,.38-.07,2.04-.18,2.11-.28.32-2.13,1.14-4.18,2.31-5.97-1.02-1.59-2.83-3.22-3.69-4.88-.24-.47-.43-.69-.3-1.28.18-.8,3.57-3.75,4.38-4.55.96-.95,2.13-3.02,3.71-2.21.88.45,2.8,2.04,3.7,2.72.47.36.92.75,1.33,1.18,1.69-1.39,3.89-1.91,5.91-2.64.28-1.16.55-2.33.78-3.5.27-1.32.16-3.84,1.99-4.06,1.36-.16,2.94.14,4.28.14,1.25,0,3.82-.68,4.48.8l1.4,6.72ZM38.04,8.77h-5.02c-.28,1.65-.55,3.38-.94,5.02-.13.53-.26,1.37-.62,1.77-.44.47-3.84,1.31-4.81,1.73-.85.37-3.02,1.84-3.72,1.76-1.18-.14-4.8-3.89-5.51-3.69-1.01.88-2.14,1.89-3.02,2.89-.29.33-1.06,1.04-.76,1.4l3.34,4.34c.6,1.24-.77,2.9-1.3,4.1-.21.49-.44,1.02-.61,1.52-.32.9-.78,3.38-1.42,3.87-.51.39-4,.8-4.93.99-.27.05-1.72.3-1.75.42l.02,4.95,5.93.93c.28.07.57.15.79.34.53.46,1.46,4.08,1.93,5.12.34.76,1.66,2.76,1.76,3.28.04.22.05.42-.07.63l-3.66,5.37,3.6,3.72c.23.06.73-.36.96-.51.97-.65,3.98-3.24,4.93-3.25.64,0,1.71.9,2.33,1.21.47.23,1.07.5,1.56.71,1.24.53,3.17.9,4.2,1.46.28.15.49.36.6.65l1.34,6.21c.04.17.14.19.29.21,1.18.22,3.07-.15,4.33-.02l1.67-7.27c2.97-.23,5.5-1.88,8.07-3.2,1.22-.3,2.88,1.26,3.87,2,.74.55,1.44,1.17,2.16,1.76h.25s3.66-3.67,3.66-3.67c-.33-1.44-3.58-4.44-3.67-5.65-.02-.26.03-.42.11-.66.39-1.24,1.6-2.86,2.14-4.28.34-.91.76-3.28,1.42-3.74,1.27-.88,5.1-.78,6.67-1.4l-.02-4.95c-.3-.46-5.94-.67-6.85-1.52-.4-.38-1.16-3.53-1.51-4.4-.4-.99-1.88-3.3-1.83-4.09.04-.63,1.48-2.61,1.92-3.25.3-.44,1.44-1.78,1.56-2.11.03-.09.09-.15,0-.24l-3.79-3.9c-1.49,1.07-2.86,2.41-4.43,3.37-1.67,1.02-1.97.09-3.35-.63-1.1-.57-2.22-1.11-3.39-1.52-1.33-.47-2.64-.28-3.21-1.83-.65-1.76-.71-4.1-1.18-5.93"/>
  <path class="st0" d="M35.41,19.71v2.89c-7.98.22-14.34,6.74-14.35,14.73h-2.71c-.13,0-.2-.29-.19-.43.01-1.81.51-4.1,1.14-5.8,2.5-6.75,8.88-11.3,16.11-11.39"/>
  <path class="st0" d="M52.91,37.46c.1,9.32-8.03,17.04-17.25,17.12v-3.02c7.63.02,14.26-6.47,14.35-14.1h2.9Z"/>
  <path class="st0" d="M35.51,28.18c-5.07,0-9.19,4.12-9.19,9.19s4.12,9.19,9.19,9.19,9.19-4.12,9.19-9.19-4.12-9.19-9.19-9.19M35.51,31.6c3.18,0,5.77,2.59,5.77,5.77s-2.59,5.77-5.77,5.77-5.77-2.59-5.77-5.77,2.59-5.77,5.77-5.77"/>
</svg>