<?xml version="1.0" encoding="UTF-8"?>
<svg id="Layer_1" xmlns="http://www.w3.org/2000/svg" version="1.1" viewBox="0 0 93.38 94.9">
  <!-- Generator: Adobe Illustrator 29.6.1, SVG Export Plug-In . SVG Version: 2.1.1 Build 9)  -->
  <defs>
    <style>
      .st0 {
        fill: #231f20;
      }
    </style>
  </defs>
  <path class="st0" d="M36.3,40.91c-1.47-.41-2.97-.78-4.5-.86v-22.82c.13-1.05.89-1.92,1.96-2.04h44.5c.96.13,1.7.89,1.88,1.83v60.49c-.02.98-.67,1.75-1.58,2.05-4.47.02-8.98.1-13.45.12-10.08.05-20.17-.04-30.25,0l2.88-1.08c1.78-.86,3.4-2.03,4.72-3.49h33.18V19.69h-39.35v21.21Z"/>
  <path class="st0" d="M24.23,54.4h8.53c.56,0,.48.84.42,1.2-.08.47-.73,2.01-1.27,2.01h-7.96v3.93h8.89s.32.16.35.23c.31.73-.47,2.41-1.13,2.84h-7.89c-.04,3.46,1.42,8.18,5.34,8.84,1.48.25,3.61-.16,4.84-1.05,2.03-1.47,2.41-4.19,3.86-5.92,1.54-1.83,4.8-.62,5.08,1.69.54,4.51-4.2,8.27-8.07,9.46-7.26,2.25-14.71-.89-17.2-8.2-.53-1.56-.77-3.19-1.01-4.81-.48-.09-3.41.11-3.6-.08-.61-.62.73-3.07,1.15-3.07h2.32l.07-4h-3.46c-.12,0-.25-.41-.25-.54-.02-.55.77-2.19,1.25-2.47.36-.21,2.66.03,2.75-.07.71-5.97,3.59-11.2,9.93-12.32,4.76-.84,12.81.53,14.77,5.66,1.02,2.68.21,5.4-3.09,5.09-2.39-.22-2.72-4.13-4.68-5.39-1.49-.95-4.47-.92-6.04-.2-2.71,1.25-3.5,4.46-3.88,7.15"/>
  <path class="st0" d="M41.5,38.78l28.83-.02c1.96.13,2.84,2.57,1.43,3.93-.59.57-1.24.55-2,.64h-27.92c-2.91-.24-3.14-3.98-.34-4.55"/>
  <path class="st0" d="M71.77,26.65c1.35,1.31.55,3.67-1.3,3.9h-29c-2.57-.45-2.6-4.07,0-4.5h28.93c.46.04,1.03.27,1.36.6"/>
  <path class="st0" d="M39.8,54.76c1.66-.15,3.09-1.22,3.92-2.62.14-.23.14-.67.47-.67h25.86c3.17.25,2.98,4.34.22,4.58h-28.5c-.82-.06-1.6-.54-1.96-1.29"/>
  <path class="st0" d="M70.62,64.26c2.41.38,2.49,4.28-.28,4.5h-25.18c0-1.49-.64-2.96-1.75-3.93l-.82-.57h28.03Z"/>
</svg>