<?xml version="1.0" encoding="UTF-8"?>
<svg id="Layer_1" xmlns="http://www.w3.org/2000/svg" version="1.1" viewBox="0 0 63.34 79.99">
  <!-- Generator: Adobe Illustrator 29.6.1, SVG Export Plug-In . SVG Version: 2.1.1 Build 9)  -->
  <defs>
    <style>
      .st0 {
        fill: #212121;
      }

      .st1 {
        fill: #2fa124;
      }
    </style>
  </defs>
  <path class="st0" d="M.96,52.92v21.01c.22,2.66,2.16,4.93,4.88,5.15h51.59c2.78-.18,4.71-2.46,4.95-5.15V5.6c-.28-2.62-2.25-4.53-4.88-4.7H5.72C3.42,1,.96,3.25.96,5.6v4.52h0v5.81s0,6.17,0,6.17v30.83s0,0,0,0ZM6.55,10.11v-3.62s50.25,0,50.25,0v67s-50.25,0-50.25,0v-15.18s0-15.4,0-15.4V14.7s0-4.59,0-4.59Z"/>
  <path class="st1" d="M18.12,43.46c1.58,1.55,2.18,1.77,3.5,4.11,2.16,3.83,1.84,5.41,2.48,6.14.64.73,3.58,1.32,5.58-2.01,2-3.33,5.13-12.52,9.13-18.03,4-5.51,5.87-7.11,7.07-7.94,0,0-2.61-.65-10.09,7.07-5.21,5.37-8.89,14.58-8.89,14.58,0,0-1.04-5.84-3.36-8.54-2.32-2.7-8.05,2.05-5.43,4.63Z"/>
</svg>