<?xml version="1.0" encoding="UTF-8"?>
<svg id="Layer_1" xmlns="http://www.w3.org/2000/svg" version="1.1" viewBox="0 0 71.03 74.74">
  <!-- Generator: Adobe Illustrator 29.6.1, SVG Export Plug-In . SVG Version: 2.1.1 Build 9)  -->
  <path d="M67.57,62.19v1.75c-.55,2.7-2.43,4.74-5.13,5.38h-2.5c-1.19-.36-2.2-.86-3.13-1.69l-11.51-11.52c-.32-.16-.56.44-.83.56l-.17-.05-4.14-4.13c-.12-.11-.14-.17-.06-.32.16-.3,1.36-1.14,1.31-1.42l-2.21-2.19c-1.15.55-2.23,1.19-3.42,1.67C15.42,58.55-4.12,36.75,6.4,17.46,16.14-.41,42.98,2.16,49.1,21.57c2.09,6.64,1.11,13.52-2.35,19.48l2.26,2.25,1.5-1.5,4.38,4.38.06.06-.75.75,11.57,11.57c.49.63.98,1.21,1.29,1.96l.52,1.67ZM25.15,7.7C8.71,8.9.14,28.2,9.99,41.42c8.86,11.87,27.11,11.12,34.87-1.5,9.15-14.89-2.4-33.48-19.71-32.22M45.5,42.81c-1.32,1.65-2.8,3.12-4.43,4.45-.03.14,1.69,1.88,1.83,1.91.14.04.25,0,.36-.1l4.18-4.22-1.93-2.04ZM50.39,44.81l-7.28,7.25c-.21.3,1,1.47,1.19,1.57.47.24,6.7-6.75,7.63-7.39l-1.54-1.43ZM52.64,48.57l-5.95,5.93,11.89,11.87c3.85,2.8,8.64-1.46,6.22-5.59l-11.92-12.1-.24-.11Z"/>
  <path d="M24.9,9.82c13.57-1.11,24.12,11.03,20.29,24.29-4.44,15.38-25.07,18.59-34.05,5.28-7.9-11.71-.37-28.41,13.76-29.57M26.53,11.83c-13.4.28-21.19,15.64-13.46,26.64,6.74,9.58,20.98,9.58,27.72,0,7.98-11.35-.48-26.93-14.26-26.64"/>
  <path d="M37.56,17.17v19.01h2v2.13H14.3v-2.13h1.94l.19-.19v-10.44h6.25v10.63h1.13v-14.88h6.25v14.7c.27.33.75.15,1.12.19v-19.01h6.38ZM35.43,19.29h-2.13v16.88h2.13v-16.88ZM27.93,23.42h-2v12.76h2v-12.76ZM20.55,27.67h-1.94c-.18.11-.17.25-.19.43-.18,1.56-.18,6.08,0,7.64.02.18.02.32.19.43h1.94v-8.5Z"/>
</svg>