<?xml version="1.0" encoding="UTF-8"?>
<svg id="Layer_1" xmlns="http://www.w3.org/2000/svg" version="1.1" viewBox="0 0 71.03 74.74">
  <!-- Generator: Adobe Illustrator 29.6.1, SVG Export Plug-In . SVG Version: 2.1.1 Build 9)  -->
  <defs>
    <style>
      .st0 {
        stroke: #212121;
        stroke-miterlimit: 10;
        stroke-width: .75px;
      }

      .st0, .st1 {
        fill: #212121;
      }
    </style>
  </defs>
  <path class="st0" d="M57.63,7.48c.89.32,1.53.9,1.62,1.88l-.05,16.6c-.16.69-1.08.91-1.57.41-.1-.1-.3-.55-.3-.66V9.4H15.39v3.88c0,.14-.23.63-.37.74l-3.54,1.89,3.53,1.76c.19.1.39.61.39.79v15.1h3.06c.11,0,.47.14.59.22.68.46.45,1.53-.31,1.68-.53.11-3.01.08-3.58,0-.86-.12-1.64-.99-1.68-1.86v-14.54c-.04-.08-1.01-.59-1.18-.68-1.03-.55-2.59-1.12-3.5-1.75-.57-.39-.59-1.08-.07-1.53l4.74-2.39c.22-1.87-.78-4.54,1.64-5.23h42.54Z"/>
  <path class="st1" d="M62.4,36.59c-.74-2.39-3.05-4.01-5.73-4.02h-9.81c1.34-2.93,2.18-6.17,2.45-9.46.22-2.69.48-5.74-2.46-7.72-1.43-.97-3.21-1.23-4.89-.71-1.68.52-3.02,1.73-3.66,3.34-.37.93-.4,1.73-.42,2.5,0,.3-.02.61-.05.94-.55,5.3-4.55,9.77-9.73,10.86-1.78.38-3.78.3-5.72.24-1.38-.05-2.81-.1-4.17,0-.38.03-1.38.11-1.9,1.13l-.11.21.02,32.04.17.25c.41.62.89.91,1.59.97.58.05,1.17.07,1.78.07.74,0,1.49-.03,2.22-.06,1.17-.04,2.38-.09,3.47-.01h.09s.09,0,.09,0c.61-.07,1.16-.43,1.51-.99l.16-.24v-.22c.17.69.74,1.24,1.55,1.43l23.65.03c2.28-.14,4.22-1.57,5.06-3.71.67-1.7.49-3.55-.44-5.04,1.15-.81,1.97-2.04,2.28-3.48.31-1.47.05-2.97-.69-4.21,1.14-.81,1.96-2.04,2.27-3.47.31-1.47.06-2.96-.69-4.2,2.02-1.51,2.89-4.03,2.12-6.48M23.53,63.29h-3.55v-26.82h3.55v26.82ZM27.3,64.84l.06-28.45c4.85-.62,9.23-3.36,11.84-7.46,1.42-2.23,2.27-4.77,2.53-7.55.02-.25.02-.51,0-.77,0-.18-.02-.36,0-.53.13-1.32,1.12-1.78,1.94-1.77.81.01,1.79.51,1.9,1.88.26,3.38-1.07,8.51-2.45,11.32-.1.2-.3.51-.5.84-.47.76-.76,1.24-.86,1.62-.15.56-.08,1.13.2,1.59.27.45.73.77,1.28.89l13.8.03c1.31.16,1.77,1.15,1.76,1.96-.01.8-.5,1.76-1.84,1.87-.78.06-1.6.03-2.47,0-.84-.03-1.7-.06-2.63,0-.9.14-1.54.9-1.57,1.85-.02.95.58,1.74,1.46,1.92.69.14,1.44.1,2.16.06.68-.04,1.38-.08,1.92.05.7.17,1.22.71,1.38,1.43.16.75-.09,1.47-.67,1.93-.63.5-1.53.45-2.58.39-.69-.04-1.4-.08-2.1.05-.83.15-1.45.84-1.54,1.71-.09.86.37,1.65,1.14,1.97.61.25,1.26.23,1.83.21.47-.02.91-.03,1.24.1.96.38,1.21,1.28,1.12,2-.08.67-.51,1.5-1.46,1.64-.12.02-.4,0-.65,0-1.02-.03-2.93-.1-3.2,1.55-.1.62,0,1.14.3,1.55.47.64,1.22.75,1.77.83.21.03.43.06.55.11.95.39,1.21,1.27,1.13,1.96-.08.69-.52,1.48-1.51,1.67h-23.08c-1.07-.04-1.96.61-2.19,1.55"/>
</svg>