<?xml version="1.0" encoding="UTF-8"?>
<svg id="Layer_1" xmlns="http://www.w3.org/2000/svg" version="1.1" viewBox="0 0 108.29 98.82">
  <!-- Generator: Adobe Illustrator 29.6.1, SVG Export Plug-In . SVG Version: 2.1.1 Build 9)  -->
  <path d="M.9,80.89c-.08-.88-.08-2.46,0-3.33.17-1.75.85-3.88,1.42-5.56C14.16,52,24.88,31.18,37.08,11.4c7.9-12.82,22.5-14.75,32.39-2.97,12.31,21.18,24.75,42.31,36.64,63.72,4.8,12.18-3.95,25.37-16.85,26.04-24.19-.19-48.43.35-72.59-.27-8.34-1.31-14.97-8.66-15.77-17.02ZM53.52,9.31c-6.08.38-7.91,4.64-10.61,9.17-11.08,18.59-21.45,37.63-32.4,56.3-3.17,7.18,1.7,14.58,9.44,14.86,23.49-.17,47.04.35,70.5-.26,6.36-1.35,10.05-8.11,7.62-14.18L62.85,14.01c-1.94-3.13-5.68-4.93-9.33-4.7Z"/>
  <path d="M53.87,30.61c2.26-.08,4.33,1.09,5.25,3.17.67,1.49.52,3.32.47,4.94-.17,6.14-.87,12.57-1.26,18.74-.15,2.49.62,5.32-1.65,7.09-2.65,2.07-6.14.49-6.61-2.77-.75-5.24-.59-11.81-.89-17.23-.24-4.43-2.43-13.69,4.68-13.94Z"/>
  <path d="M58.07,78.52c-5.43,5.51-13.37-3.63-7.11-8.26,5.48-4.05,11.57,3.73,7.11,8.26Z"/>
</svg>